<svg width="40" height="40" viewBox="0 0 40 40" fill="none" xmlns="http://www.w3.org/2000/svg">
<path fill-rule="evenodd" clip-rule="evenodd" d="M19.5745 0.00455187C23.5473 -0.0802077 27.4554 1.02043 30.8001 3.16605C34.1448 5.31167 36.7745 8.40501 38.3538 12.0515C39.9331 15.6979 40.3903 19.7321 39.6671 23.6395C38.944 27.5469 37.0733 31.1503 34.2937 33.9901C31.514 36.8298 27.9514 38.7772 24.0604 39.5837C20.1693 40.3902 16.1262 40.0194 12.4468 38.5184C8.76746 37.0175 5.61859 34.4545 3.40194 31.1565C1.18528 27.8585 0.00131678 23.9748 0.00109903 20.0011C-0.0541656 14.754 1.97678 9.69986 5.64732 5.94996C9.31787 2.20007 14.3275 0.0615062 19.5745 0.00455187V0.00455187Z" fill="url(#paint0_linear_113_2192)"/>
<path style="mix-blend-mode:screen" fill-rule="evenodd" clip-rule="evenodd" d="M1.59174 25.9717C2.75741 29.8365 5.13713 33.223 8.37831 35.6294C11.6195 38.0358 15.5497 39.334 19.5865 39.3316C23.6233 39.3293 27.552 38.0266 30.7904 35.6165C34.0288 33.2064 36.4046 29.8171 37.5658 25.9509C36.1723 29.5929 33.7063 32.7262 30.4939 34.9367C27.2815 37.1472 23.4739 38.3307 19.5744 38.3309C19.2843 38.3309 18.9964 38.324 18.7109 38.3102C14.968 38.1391 11.3561 36.881 8.31701 34.6897C5.27788 32.4984 2.94325 29.4688 1.59864 25.9717H1.59174Z" fill="url(#paint1_radial_113_2192)"/>
<path fill-rule="evenodd" clip-rule="evenodd" d="M19.5745 0.488281C23.2511 0.48794 26.8453 1.57787 29.9025 3.62024C32.9596 5.66261 35.3425 8.56569 36.7497 11.9623C38.1569 15.359 38.5253 19.0967 37.8082 22.7027C37.0912 26.3087 35.3209 29.6211 32.7212 32.221C30.1216 34.8209 26.8094 36.5915 23.2034 37.3089C19.5975 38.0263 15.8597 37.6582 12.463 36.2513C9.06618 34.8444 6.16289 32.4618 4.12023 29.4049C2.07758 26.3479 0.987305 22.7538 0.987305 19.0772C0.987305 14.1474 2.94554 9.41952 6.43126 5.93347C9.91699 2.44741 14.6447 0.488739 19.5745 0.488281V0.488281Z" fill="url(#paint2_radial_113_2192)"/>
<g style="mix-blend-mode:screen" opacity="0.5">
<path fill-rule="evenodd" clip-rule="evenodd" d="M6.78001 6.28103C8.81103 4.22507 11.2817 2.65634 14.0064 1.69279C16.731 0.729244 19.6386 0.395954 22.5106 0.717987C21.5394 0.565109 20.5577 0.488308 19.5745 0.488281C16.8859 0.491514 14.23 1.07725 11.7895 2.20517C9.34904 3.33309 7.18192 4.97642 5.43732 7.02205C3.69272 9.06767 2.41206 11.467 1.6835 14.055C0.954945 16.6429 0.795777 19.358 1.21696 22.0133C0.894789 19.1411 1.22803 16.2332 2.19157 13.5082C3.15512 10.7833 4.72392 8.31231 6.78001 6.28103V6.28103Z" fill="#CA9E67"/>
</g>
<g style="mix-blend-mode:screen" opacity="0.5">
<path fill-rule="evenodd" clip-rule="evenodd" d="M38.1445 18.2358C38.1605 20.7893 37.6695 23.3205 36.6998 25.6827C35.7301 28.0449 34.301 30.191 32.4955 31.9967C30.69 33.8024 28.544 35.2316 26.1819 36.2015C23.8198 37.1714 21.2886 37.6627 18.7352 37.6469C19.0132 37.659 19.293 37.6642 19.5745 37.6642C22.0156 37.6644 24.4328 37.1838 26.6881 36.2498C28.9434 35.3158 30.9926 33.9467 32.7188 32.2207C34.445 30.4947 35.8143 28.4456 36.7485 26.1904C37.6827 23.9351 38.1635 21.518 38.1635 19.0769C38.1635 18.7954 38.1635 18.5139 38.1445 18.2358V18.2358Z" fill="#CA9E67"/>
</g>
<path style="mix-blend-mode:multiply" fill-rule="evenodd" clip-rule="evenodd" d="M16.1151 19.9165C13.255 18.7076 10.3189 17.654 7.52269 16.2896C6.78021 15.9546 6.09808 15.4994 5.5037 14.9425C5.27916 14.7526 5.10424 14.5109 4.9941 14.2383C4.88396 13.9656 4.84189 13.6702 4.87156 13.3777C5.02873 12.5435 5.96657 11.8682 6.65396 11.4779C6.77313 11.4088 6.89576 11.3431 7.01838 11.2792C7.99858 10.7897 9.01901 10.3852 10.0685 10.0703C11.2153 9.71103 12.3828 9.41569 13.5503 9.1359C14.4933 8.91137 15.4502 8.69548 16.3862 8.46923C17.2774 8.2568 18.1704 8.034 19.0495 7.77839C22.9113 6.64022 26.7438 5.4036 30.5538 4.10135C29.1598 3.07845 27.6298 2.2553 26.008 1.65576C25.331 1.87683 24.6591 2.11344 23.989 2.35697C22.2323 3.00154 20.4307 3.51645 18.5987 3.89755C16.9747 4.22703 15.3281 4.43315 13.673 4.51414C11.9306 4.58957 10.1854 4.5717 8.44496 4.46059L8.15135 4.44332C5.92567 6.17877 4.12557 8.39944 2.88823 10.9361C1.6509 13.4727 1.00902 16.2583 1.01148 19.0806C1.01148 19.2119 1.01148 19.3431 1.01148 19.4727L1.22044 19.5262C2.77484 19.9217 4.35862 20.2482 5.94239 20.5435C12.3949 21.7438 18.5607 23.9632 24.8491 25.7784C26.3448 26.2119 27.818 26.7197 29.2757 27.2689C31.1755 27.9839 33.0391 28.7697 34.9061 29.5573C35.1272 29.2384 35.3367 28.9108 35.5348 28.5746L35.2446 28.4468C32.5693 27.2516 29.9752 25.8837 27.2999 24.6903C23.597 23.0409 19.8457 21.5038 16.1134 19.92L16.1151 19.9165Z" fill="url(#paint3_radial_113_2192)"/>
<path d="M20.3031 13.9336C20.3031 14.0039 20.2819 14.0709 20.2819 14.1413C20.2819 14.0709 20.2997 14.0039 20.3031 13.9347V13.9336Z" fill="#B39E8D"/>
<path d="M22.6777 18.9854C22.5013 19.0099 22.3283 19.0568 22.1541 19.0903C22.3283 19.0579 22.5013 19.0099 22.6777 18.9854Z" fill="#B39E8D"/>
<path d="M26.707 19.0635L26.5897 19.04C26.6299 19.0467 26.6679 19.0568 26.7081 19.0635H26.707Z" fill="#B39E8D"/>
<path d="M13.3946 21.2664C13.3265 21.2775 13.2607 21.2954 13.1926 21.3077C13.2573 21.2909 13.3265 21.2775 13.3946 21.2664Z" fill="#B39E8D"/>
<path d="M18.8842 21.5354C19.0371 21.5801 19.1845 21.647 19.3307 21.6928C19.1845 21.6426 19.0371 21.5801 18.8842 21.5354Z" fill="#B39E8D"/>
<path d="M15.7 21.1H15.6766C15.7369 21.1 15.7971 21.0945 15.8608 21.0945C15.805 21.0956 15.7525 21.0978 15.7 21.1Z" fill="#B39E8D"/>
<path d="M21.9922 23.066C21.8141 22.8962 21.6179 22.7465 21.4072 22.6194C21.6182 22.7461 21.8144 22.8959 21.9922 23.066V23.066Z" fill="#B39E8D"/>
<path d="M11.3739 16.1296C11.3683 16.2111 11.3493 16.2893 11.3493 16.3719C11.3493 16.2893 11.3694 16.2111 11.3739 16.1296Z" fill="#B39E8D"/>
<g style="mix-blend-mode:screen" opacity="0.5">
<path d="M26.1119 17.995C26.1756 18.0028 26.2403 17.995 26.304 18.0084C26.3229 18.0084 26.343 18.0084 26.362 18.0084C26.4737 18.0251 26.5909 18.0642 26.707 18.0843C27.0241 18.1412 27.3378 18.2126 27.6482 18.2941C27.7319 18.1937 27.8234 18.0988 27.8982 17.9905C27.9306 17.9436 27.9596 17.8945 27.9898 17.8465C28.0389 17.7695 28.0936 17.6946 28.1383 17.6143C28.1718 17.5517 28.1919 17.4814 28.2231 17.4167C28.2801 17.2983 28.3348 17.1788 28.3783 17.0549C28.4006 16.9935 28.4341 16.9433 28.4542 16.8774C28.481 16.7926 28.4933 16.701 28.5145 16.6139C28.5357 16.5269 28.5614 16.4331 28.5781 16.3393C28.586 16.2924 28.6027 16.2488 28.6094 16.2008C28.6377 16.0022 28.6519 15.8019 28.6518 15.6013V14.1455C28.6512 14.9652 28.4102 15.7667 27.9588 16.4509C27.5074 17.1351 26.8653 17.6719 26.1119 17.995Z" fill="#BC886C"/>
<path d="M22.5091 18.0307C22.565 18.0229 22.6208 18.0196 22.6777 18.0118C22.7347 18.004 22.7782 17.9995 22.8284 17.9939C22.0735 17.6714 21.4298 17.1344 20.9771 16.4496C20.5245 15.7647 20.2827 14.9621 20.2819 14.1411V15.6059C20.2845 16.5953 20.6409 17.5512 21.2866 18.3009C21.3313 18.2875 21.3771 18.273 21.4229 18.2607C21.7857 18.1647 22.1452 18.0877 22.5091 18.0307Z" fill="#BC886C"/>
<path d="M13.5275 20.2513C13.5632 20.2458 13.6 20.2513 13.6391 20.2435C13.7217 20.2312 13.8066 20.2335 13.8892 20.2234C13.1361 19.8998 12.4943 19.3625 12.0435 18.6779C11.5927 17.9932 11.3525 17.1915 11.3527 16.3717V15.8872V17.8354C11.3561 18.8178 11.7077 19.7672 12.3452 20.5148L12.4311 20.4891C12.7923 20.3911 13.1582 20.3117 13.5275 20.2513V20.2513Z" fill="#BC886C"/>
<path d="M30.4906 25.5858H24.1805V25.2944C24.1469 24.5652 23.9329 23.8558 23.5576 23.2297C23.1823 22.6036 22.6575 22.0805 22.0302 21.7073C21.014 21.0535 19.8868 20.5907 18.7043 20.3419V19.3672C18.9801 19.2098 19.2693 19.0803 19.5584 18.9497C19.5651 18.9139 19.5729 18.8793 19.5819 18.8458C19.6042 18.7543 19.6276 18.665 19.6444 18.5723C19.6533 18.5243 19.6701 18.4797 19.6768 18.4316C19.7051 18.2342 19.7192 18.035 19.7192 17.8355V16.3718C19.7182 17.1896 19.4781 17.9891 19.0284 18.6721C18.5787 19.3551 17.939 19.8917 17.1882 20.2157C17.2452 20.2224 17.2999 20.2157 17.359 20.228C17.3736 20.228 17.3881 20.228 17.4026 20.228C17.5142 20.2425 17.6102 20.2782 17.7152 20.2972C18.1094 20.362 18.4996 20.4489 18.8841 20.5573C18.9276 20.5696 18.9734 20.5741 19.0181 20.5875C19.3653 20.6991 19.7069 20.8208 20.043 20.9615C20.1144 20.9916 20.1836 21.0285 20.2551 21.0597C20.4583 21.1502 20.6626 21.2373 20.8602 21.34C21.0578 21.4427 21.2275 21.5376 21.4072 21.6447C21.6182 21.7715 21.8144 21.9213 21.9922 22.0913C22.0414 22.1371 22.0871 22.184 22.1329 22.232C22.2713 22.3748 22.3965 22.5299 22.5069 22.6953C22.5326 22.7344 22.5627 22.769 22.5873 22.807C22.696 22.9843 22.7883 23.1711 22.8631 23.3652C22.8731 23.3931 22.8765 23.4232 22.8865 23.4511C22.9066 23.5125 22.9189 23.5751 22.9368 23.6376C22.9658 23.7425 23.0026 23.8441 23.0216 23.9513V23.9815C23.7176 24.7406 24.1264 25.7193 24.1771 26.748V27.0394H30.4872C30.6675 27.0346 30.8453 26.9968 31.0119 26.9277C31.0538 26.9122 31.0948 26.8943 31.1347 26.8741C31.2742 26.8092 31.4026 26.723 31.5154 26.6185C31.53 26.6051 31.5467 26.5961 31.5601 26.5827C31.6585 26.4831 31.7426 26.3704 31.8102 26.2478C31.828 26.2143 31.8392 26.1775 31.8548 26.1362C31.8705 26.0949 31.8738 26.0937 31.8827 26.0725C31.8917 26.0513 31.9129 26.0111 31.9229 25.9776C31.949 25.8984 31.9677 25.8169 31.9788 25.7342C31.989 25.6629 31.9943 25.5909 31.9944 25.5188V24.0819C31.9941 24.4807 31.8356 24.863 31.5536 25.145C31.2716 25.4269 30.8893 25.5855 30.4906 25.5858V25.5858Z" fill="#BC886C"/>
<path d="M21.558 27.8266H9.51054C9.11225 27.822 8.73158 27.6617 8.44993 27.38C8.16828 27.0983 8.008 26.7177 8.00336 26.3194V27.7708C8.00628 28.1696 8.16601 28.5513 8.44803 28.8333C8.73005 29.1153 9.11172 29.275 9.51054 29.278H21.558C21.6821 29.2763 21.8055 29.259 21.9253 29.2266C21.9599 29.2177 21.9912 29.2065 22.0247 29.1953C22.1128 29.1662 22.1981 29.1288 22.2792 29.0837C22.306 29.0692 22.3328 29.0569 22.3585 29.0401C22.4586 28.9765 22.5512 28.9016 22.6342 28.8169C22.6487 28.8012 22.661 28.7822 22.6755 28.7666C22.7412 28.6932 22.7995 28.6136 22.8497 28.5288C22.8586 28.5132 22.8732 28.502 22.881 28.4864C22.8888 28.4708 22.8999 28.4395 22.9111 28.4172C22.9312 28.3759 22.9491 28.3335 22.9658 28.2888C22.9747 28.2665 22.987 28.2453 22.9948 28.2218C23.0027 28.1984 23.0082 28.1604 23.0161 28.1291C23.0239 28.0979 23.0328 28.0655 23.0384 28.032C23.044 27.9985 23.0473 27.9985 23.0496 27.9807C23.0598 27.9097 23.0651 27.838 23.0652 27.7663V26.3149C23.0652 26.7151 22.9065 27.0989 22.624 27.3822C22.3415 27.6656 21.9581 27.8254 21.558 27.8266V27.8266Z" fill="#BC886C"/>
</g>
<path d="M20.3601 13.3719C20.3746 13.2938 20.3969 13.2201 20.4159 13.1487C20.4471 13.0225 20.4885 12.9008 20.5275 12.7791C20.5666 12.6575 20.6124 12.5313 20.6671 12.413C20.7006 12.3404 20.7441 12.2723 20.7787 12.202C20.8534 12.0529 20.9365 11.9083 21.0277 11.7688V11.7688C21.1662 11.5694 21.322 11.3826 21.4932 11.2106V11.2106C21.5189 11.1849 21.5491 11.1648 21.5759 11.1391C21.7259 10.996 21.8863 10.8642 22.0559 10.745V10.745C22.1218 10.6992 22.1899 10.6601 22.258 10.6177C22.3855 10.54 22.517 10.4692 22.6521 10.4056C22.747 10.3598 22.8397 10.3129 22.9379 10.275L22.996 10.2571C23.7 9.97839 24.4693 9.90824 25.2121 10.055V10.055C26.1176 10.2205 26.9424 10.6823 27.5566 11.368C27.6292 11.4517 27.7006 11.5354 27.7676 11.6225C28.0329 11.9687 28.2421 12.3545 28.3872 12.7657C28.4174 12.8617 28.4498 12.9578 28.4765 13.056C28.579 13.4111 28.6334 13.7783 28.6384 14.1479V13.1743C28.6384 13.1453 28.6384 13.1174 28.6384 13.0895C28.6339 12.8739 28.6134 12.659 28.577 12.4464C28.577 12.4263 28.5647 12.4074 28.5603 12.3873C28.5402 12.2756 28.5045 12.183 28.4765 12.0814C28.4431 11.9563 28.4207 11.8279 28.3761 11.7085C28.3649 11.6806 28.347 11.6549 28.3359 11.627C28.2923 11.5153 28.2365 11.4171 28.184 11.3121C28.1211 11.181 28.0514 11.0532 27.9753 10.9292C27.9116 10.8298 27.8379 10.7394 27.7676 10.6468C27.6794 10.5351 27.5923 10.4234 27.4941 10.3118C27.4126 10.2258 27.3244 10.1488 27.2362 10.0706C27.1314 9.97513 27.0218 9.88499 26.908 9.8005C26.8108 9.73016 26.7092 9.66876 26.6065 9.60735C26.5351 9.56381 26.4703 9.51021 26.3955 9.47114C26.343 9.44434 26.2839 9.42871 26.2303 9.40415C26.1186 9.35391 26.0137 9.31037 25.9021 9.26906C25.8306 9.24338 25.7636 9.20543 25.691 9.1831C25.6185 9.16077 25.5247 9.14735 25.4421 9.12726C25.3595 9.10716 25.2858 9.0893 25.2065 9.07479C25.1585 9.06586 25.1127 9.05025 25.0636 9.04355C24.8636 9.01428 24.6617 8.99972 24.4596 9H24.4462C24.2309 9.00066 24.0159 9.01782 23.8032 9.05135C23.7685 9.05693 23.7373 9.06922 23.7038 9.07591C23.5921 9.09489 23.4961 9.12615 23.3923 9.15295C23.2885 9.17974 23.1791 9.19651 23.0775 9.23223C23.0272 9.25009 22.9815 9.27577 22.9323 9.29475C22.8542 9.32601 22.7783 9.36062 22.7023 9.39523C22.5489 9.4672 22.3998 9.54807 22.2558 9.63747C22.1877 9.67989 22.1196 9.72011 22.0537 9.76588C21.8844 9.88509 21.7239 10.0164 21.5736 10.1589C21.5468 10.1845 21.5167 10.2057 21.491 10.2314C21.3198 10.4035 21.164 10.5903 21.0255 10.7896C20.9853 10.8466 20.9529 10.908 20.9138 10.966C20.8192 11.1164 20.7341 11.2727 20.6593 11.4338C20.6235 11.5109 20.5923 11.5879 20.561 11.6672C20.498 11.8311 20.4458 11.9989 20.4047 12.1696C20.3857 12.2455 20.3634 12.3203 20.3489 12.3929C20.299 12.6466 20.2728 12.9045 20.2708 13.1632V13.6533V14.1367C20.2708 14.0664 20.2875 13.9994 20.292 13.9291C20.3029 13.7421 20.3257 13.556 20.3601 13.3719V13.3719Z" fill="#4F2806"/>
<path d="M11.3739 16.1294C11.3815 15.9511 11.399 15.7733 11.4264 15.5969V15.5969C11.4896 15.2636 11.5935 14.9393 11.7356 14.6312V14.6312C11.7747 14.5452 11.8249 14.4648 11.8707 14.3822C12.0408 14.0611 12.2525 13.7638 12.5004 13.498C12.5227 13.4746 12.5394 13.4455 12.5618 13.4232C12.5852 13.3987 12.6131 13.3808 12.6366 13.3573C12.7885 13.2113 12.9512 13.077 13.1233 12.9554V12.9554C13.1881 12.9097 13.2562 12.8706 13.3232 12.8293C13.4668 12.7389 13.616 12.6576 13.7698 12.5859V12.5859C13.8669 12.5412 13.9651 12.5033 14.0667 12.4653C14.1962 12.4184 14.328 12.3782 14.4631 12.3425C15.1284 12.1487 15.8341 12.1402 16.5039 12.3179V12.3179C16.6603 12.3564 16.8142 12.4042 16.965 12.4609V12.4609C17.3228 12.5914 17.6609 12.7706 17.9698 12.9934V12.9934C18.0814 13.0771 18.1931 13.1698 18.298 13.2636C18.7397 13.6518 19.0938 14.1295 19.3369 14.6649C19.58 15.2004 19.7065 15.7814 19.7081 16.3695V15.3111C19.7042 15.0966 19.6836 14.8827 19.6467 14.6714C19.6467 14.6502 19.6333 14.6301 19.6299 14.6089C19.6098 14.5039 19.5741 14.4057 19.5462 14.3041C19.5127 14.1802 19.4904 14.0518 19.4457 13.9323C19.4345 13.9033 19.4167 13.8776 19.4044 13.8486C19.3609 13.7369 19.3039 13.6364 19.2503 13.5315C19.188 13.4002 19.1187 13.2724 19.0427 13.1486C18.9779 13.0481 18.9042 12.9577 18.8317 12.8628C18.7466 12.7466 18.6557 12.6348 18.5593 12.5278C18.4766 12.4419 18.3873 12.3637 18.298 12.2833C18.1932 12.1882 18.0836 12.0984 17.9698 12.0143C17.8727 11.9428 17.7711 11.8814 17.6672 11.8189C17.5947 11.7753 17.5299 11.7217 17.454 11.6827C17.4015 11.6548 17.3423 11.6403 17.2899 11.6146C17.1782 11.5655 17.0733 11.5219 16.9616 11.4806C16.8891 11.4538 16.8221 11.4158 16.7473 11.3935C16.6725 11.3712 16.5821 11.3578 16.5006 11.3377C16.4191 11.3176 16.3454 11.2998 16.2661 11.2864C16.217 11.2774 16.1712 11.2607 16.121 11.254C15.9217 11.2247 15.7206 11.2102 15.5192 11.2105H15.5058C15.2916 11.2113 15.0778 11.2281 14.8661 11.2607C14.8315 11.2663 14.7991 11.2808 14.7645 11.2864C14.6596 11.3053 14.5613 11.3366 14.4597 11.3623C14.3581 11.3879 14.2465 11.4058 14.146 11.4404C14.0935 11.4594 14.0466 11.4862 13.9953 11.5063C13.9171 11.5375 13.8423 11.571 13.772 11.6068C13.6183 11.6791 13.4692 11.7607 13.3254 11.8513C13.2584 11.8926 13.1903 11.9316 13.1256 11.9774C12.9532 12.0987 12.7905 12.2331 12.6388 12.3794C12.6142 12.4028 12.5863 12.4218 12.5629 12.4452C12.393 12.6179 12.238 12.8046 12.0996 13.0034C12.0594 13.0615 12.027 13.124 11.9879 13.1843C11.8936 13.3341 11.8093 13.49 11.7356 13.6509C11.6999 13.728 11.6675 13.805 11.6374 13.8854C11.5747 14.0491 11.5225 14.2165 11.4811 14.3867C11.4632 14.4637 11.4398 14.5385 11.4252 14.6167C11.3762 14.8695 11.3504 15.1262 11.3482 15.3837V16.3605C11.3493 16.2891 11.3683 16.2109 11.3739 16.1294Z" fill="#4F2806"/>
<path d="M31.9531 21.7018C31.9352 21.6002 31.9006 21.5042 31.8738 21.406C31.856 21.3435 31.8437 21.281 31.8225 21.2196C31.8124 21.1883 31.808 21.1548 31.7968 21.1235C31.7241 20.9315 31.6332 20.7468 31.5255 20.572C31.5032 20.5352 31.4741 20.5028 31.4507 20.4671C31.339 20.299 31.2119 20.1417 31.0711 19.9971C31.0242 19.9491 30.9796 19.9033 30.9304 19.8575C30.7507 19.6892 30.5526 19.5417 30.3398 19.4176C30.159 19.306 29.9759 19.2077 29.7906 19.1106C29.6052 19.0135 29.3842 18.9186 29.1799 18.8282C29.114 18.7991 29.0504 18.7656 28.9845 18.7377C28.6559 18.5995 28.3206 18.4781 27.9797 18.3738C27.9306 18.3592 27.8792 18.3548 27.8312 18.3414C27.7832 18.328 27.7051 18.3157 27.6425 18.299C27.3322 18.2175 27.0185 18.146 26.7014 18.0891C26.5897 18.069 26.4781 18.0299 26.3564 18.0131C26.3374 18.0131 26.3173 18.0131 26.2984 18.0131C26.2347 18.0042 26.17 18.0076 26.1063 17.9998C25.5875 18.2218 25.029 18.3363 24.4646 18.3363C23.9002 18.3363 23.3417 18.2218 22.8229 17.9998C22.7727 18.0053 22.7224 18.0098 22.6722 18.0176C22.6219 18.0254 22.5605 18.0288 22.5036 18.0366C22.1396 18.0935 21.7801 18.1739 21.4229 18.2666C21.3771 18.2788 21.3313 18.2934 21.2867 18.3068L21.175 18.3414C20.9808 18.3972 20.7854 18.453 20.5945 18.5144C20.4594 18.5602 20.3299 18.6261 20.1982 18.6718C20.0664 18.7176 19.9749 18.76 19.8576 18.8081C19.7404 18.8561 19.6589 18.9085 19.5573 18.9554C19.2682 19.086 18.979 19.2155 18.7032 19.3729V20.3476C19.6873 19.7926 20.75 19.3906 21.8549 19.1553C21.9543 19.1341 22.0537 19.1151 22.153 19.0961C22.3272 19.0626 22.5002 19.0157 22.6766 18.9912C23.1777 18.9187 23.6832 18.8814 24.1894 18.8795H24.7822C25.3879 18.8851 25.992 18.9404 26.5886 19.0447L26.7059 19.0682C27.3671 19.1844 28.0159 19.3623 28.644 19.5996C28.7556 19.6409 28.8673 19.6699 28.9789 19.7168C29.0448 19.7436 29.1084 19.7771 29.1732 19.8061C29.5735 19.9792 29.9628 20.1768 30.3387 20.3978C30.5514 20.5219 30.7496 20.6694 30.9293 20.8377V20.8377C30.9784 20.8824 31.0231 20.9293 31.0689 20.9762C31.2094 21.1214 31.3364 21.2791 31.4485 21.4473V21.4473C31.473 21.483 31.5009 21.5154 31.5233 21.5511C31.6458 21.7554 31.7454 21.9725 31.8202 22.1987V22.1987C31.9182 22.4792 31.9772 22.7718 31.9955 23.0683V22.0948C31.9895 21.9631 31.9754 21.8318 31.9531 21.7018V21.7018Z" fill="#4F2806"/>
<path d="M22.9368 23.6421C22.9189 23.5796 22.9066 23.5171 22.8865 23.4557C22.8765 23.4277 22.8731 23.3976 22.8631 23.3697C22.7883 23.1756 22.696 22.9888 22.5873 22.8115C22.5628 22.7713 22.5326 22.7367 22.507 22.6998C22.3965 22.5344 22.2713 22.3793 22.133 22.2365C22.0872 22.1885 22.0414 22.1416 21.9923 22.0959C21.8144 21.9258 21.6182 21.776 21.4073 21.6492C21.2279 21.5421 21.0455 21.4405 20.8602 21.3445C20.6626 21.2418 20.4583 21.1547 20.2551 21.0643C20.1837 21.033 20.1144 20.9961 20.043 20.966C19.7081 20.8253 19.3653 20.6981 19.0181 20.592C18.9734 20.5786 18.9277 20.5741 18.8841 20.5618C18.4997 20.4534 18.1094 20.3665 17.7152 20.3017C17.6103 20.2827 17.5087 20.247 17.4026 20.2325C17.3881 20.2325 17.3736 20.2325 17.3591 20.2325C17.3021 20.2247 17.2474 20.2269 17.1883 20.2202C16.6676 20.4472 16.1059 20.5649 15.5379 20.5663C14.9699 20.5676 14.4076 20.4525 13.8858 20.2281C13.8032 20.2381 13.7184 20.2358 13.6358 20.2481C13.6 20.2481 13.5632 20.2481 13.5241 20.256C13.1537 20.3159 12.7867 20.3949 12.4244 20.4926L12.3385 20.5183L12.1598 20.5719C11.9924 20.621 11.8249 20.6634 11.6552 20.7215C11.4855 20.7796 11.3482 20.8465 11.1941 20.9079C11.0724 20.9559 10.9519 21.0017 10.8324 21.0542C10.4289 21.2292 10.0367 21.4291 9.65791 21.6526C9.18296 21.9273 8.78315 22.3149 8.49394 22.7812C8.20473 23.2474 8.03507 23.7778 8 24.3253V25.2989C8.03496 24.7515 8.20459 24.2212 8.49381 23.7551C8.78304 23.289 9.18292 22.9016 9.65791 22.6273C10.5211 22.1128 11.4524 21.7223 12.4244 21.4673V21.4673C12.6756 21.4014 12.9335 21.3556 13.1892 21.3121C13.2573 21.2998 13.3232 21.282 13.3913 21.2708C13.9931 21.1629 14.603 21.1058 15.2144 21.1C15.326 21.1 15.4254 21.11 15.5359 21.11C15.5828 21.11 15.6275 21.11 15.6733 21.11H15.6967C15.7492 21.11 15.8016 21.11 15.8575 21.11C16.881 21.1125 17.899 21.2606 18.8808 21.5499V21.5499C19.0337 21.5946 19.1811 21.6615 19.3273 21.7073C20.0485 21.9435 20.7427 22.2553 21.3983 22.6373C21.609 22.7644 21.8052 22.9141 21.9833 23.0839V23.0839C22.1089 23.2056 22.2243 23.3374 22.3283 23.478C22.3841 23.5483 22.4478 23.6131 22.498 23.6868C22.5237 23.7247 22.5538 23.7604 22.5784 23.7984C22.6119 23.8553 22.6309 23.9201 22.6621 23.9793C22.7738 24.1865 22.8629 24.4051 22.9279 24.6313V24.6313C22.9944 24.852 23.0374 25.0792 23.0562 25.3089V24.3354C23.0491 24.2231 23.0357 24.1113 23.0161 24.0005V23.9703C23.0027 23.8486 22.9703 23.747 22.9368 23.6421Z" fill="#4F2806"/>
<g style="mix-blend-mode:multiply" opacity="0.75">
<path d="M22.8285 17.9943C23.5504 18.3129 24.3481 18.419 25.1282 18.3002C25.9083 18.1814 26.6383 17.8426 27.2327 17.3235C27.827 16.8044 28.2609 16.1266 28.4836 15.3696C28.7063 14.6126 28.7085 13.8078 28.4899 13.0496C28.4631 12.9513 28.433 12.8542 28.3995 12.7582C28.2543 12.3469 28.0452 11.9611 27.7798 11.615C27.7129 11.5279 27.6436 11.443 27.5688 11.3604C26.9546 10.6748 26.1298 10.2129 25.2243 10.0475C24.4815 9.90068 23.7122 9.97083 23.0082 10.2496L22.9501 10.2674C22.8519 10.3054 22.7592 10.3523 22.6643 10.398C22.5293 10.4617 22.3977 10.5325 22.2702 10.6102C22.2021 10.6526 22.134 10.6917 22.0682 10.7375C21.8986 10.8567 21.7381 10.9884 21.5881 11.1316C21.5613 11.1572 21.5312 11.1773 21.5055 11.203C21.3345 11.3753 21.1788 11.5621 21.0399 11.7612C20.9487 11.9007 20.8656 12.0454 20.791 12.1944C20.753 12.2647 20.7095 12.3328 20.6793 12.4065C20.6246 12.5249 20.5833 12.6488 20.5398 12.7727C20.4962 12.8966 20.456 13.0161 20.4281 13.1422C20.4091 13.2182 20.3868 13.2919 20.3723 13.3655C20.3404 13.5501 20.3214 13.7366 20.3154 13.9238C20.3154 13.993 20.2941 14.06 20.2941 14.1303C20.2918 14.9518 20.5307 15.7559 20.9812 16.4428C21.4318 17.1297 22.0741 17.6691 22.8285 17.9943V17.9943Z" fill="url(#paint4_linear_113_2192)" style="mix-blend-mode:multiply"/>
<path d="M18.3092 13.2658C18.2032 13.172 18.096 13.0794 17.9799 12.9956C17.671 12.7728 17.3329 12.5936 16.9751 12.4631C16.8243 12.4064 16.6704 12.3587 16.514 12.3202C15.8442 12.1425 15.1385 12.151 14.4731 12.3447C14.3381 12.3805 14.2052 12.4195 14.0768 12.4675C13.9752 12.5055 13.877 12.5435 13.7798 12.5881C13.626 12.6606 13.4769 12.7426 13.3333 12.8337C13.2663 12.875 13.1982 12.9141 13.1334 12.9599C12.9612 13.0817 12.7981 13.216 12.6455 13.3618C12.6221 13.3852 12.5942 13.4031 12.5707 13.4277C12.5473 13.4522 12.5317 13.479 12.5093 13.5025C12.2615 13.7682 12.0498 14.0655 11.8797 14.3867C11.8339 14.4693 11.7837 14.5497 11.7435 14.6357C11.6013 14.9437 11.4975 15.268 11.4342 15.6014C11.4059 15.7762 11.3884 15.9525 11.3817 16.1294C11.3817 16.2109 11.3572 16.2891 11.3572 16.3717C11.3572 17.4821 11.7983 18.547 12.5834 19.3321C13.3686 20.1172 14.4334 20.5583 15.5438 20.5583C16.6542 20.5583 17.7191 20.1172 18.5042 19.3321C19.2893 18.547 19.7304 17.4821 19.7304 16.3717C19.7275 15.7828 19.5992 15.2013 19.3542 14.6658C19.1092 14.1302 18.7529 13.653 18.3092 13.2658V13.2658Z" fill="url(#paint5_linear_113_2192)" style="mix-blend-mode:multiply"/>
<path d="M31.5255 21.5455C31.5032 21.5098 31.4753 21.4774 31.4507 21.4417C31.339 21.273 31.2115 21.1152 31.07 20.9706C31.0242 20.9237 30.9796 20.8768 30.9304 20.8321C30.7502 20.6655 30.5517 20.5198 30.3387 20.3978C29.9643 20.1771 29.5765 19.9799 29.1776 19.8072C29.1129 19.7782 29.0493 19.7447 28.9834 19.7179C28.8717 19.6711 28.7601 19.6431 28.6485 19.6007C28.0204 19.3635 27.3715 19.1855 26.7103 19.0693C26.6701 19.0626 26.6322 19.0525 26.592 19.0458C25.9954 18.9415 25.3912 18.8862 24.7856 18.8806H24.1928C23.6865 18.8825 23.181 18.9198 22.68 18.9922C22.5036 19.0168 22.3306 19.0637 22.1564 19.0972C22.057 19.1162 21.9577 19.1351 21.8583 19.1564C20.7533 19.3917 19.6906 19.7937 18.7066 20.3487C19.8891 20.5976 21.0162 21.0603 22.0325 21.7141C22.6597 22.0874 23.1846 22.6105 23.5599 23.2365C23.9352 23.8626 24.1492 24.572 24.1827 25.3012V25.5926H30.4928C30.6908 25.5929 30.8869 25.5541 31.0699 25.4785C31.2529 25.4028 31.4192 25.2918 31.5592 25.1518C31.6992 25.0118 31.8102 24.8455 31.8859 24.6625C31.9615 24.4796 32.0003 24.2834 32 24.0854V23.0706C31.9817 22.774 31.9227 22.4814 31.8247 22.2009C31.7489 21.9723 31.6486 21.7526 31.5255 21.5455V21.5455Z" fill="url(#paint6_linear_113_2192)" style="mix-blend-mode:multiply"/>
<path d="M22.671 23.9649C22.6398 23.9057 22.6208 23.841 22.5873 23.784C22.5628 23.745 22.5326 23.7092 22.5069 23.6724C22.4567 23.5976 22.3953 23.5328 22.3372 23.4625C22.2332 23.322 22.1178 23.1901 21.9923 23.0684C21.8144 22.8983 21.6182 22.7485 21.4072 22.6218C20.7516 22.2398 20.0574 21.9281 19.3363 21.6918C19.1844 21.6405 19.0371 21.5802 18.8897 21.5344C17.9079 21.2451 16.8899 21.0971 15.8664 21.0946C15.8027 21.0946 15.7425 21.0945 15.6822 21.1001C15.6219 21.1057 15.5917 21.1001 15.5448 21.1001C15.4332 21.1001 15.3338 21.0901 15.2233 21.0901C14.6119 21.0959 14.002 21.153 13.4002 21.2609C13.3321 21.272 13.2662 21.2899 13.1981 21.3022C12.9424 21.3502 12.6845 21.3915 12.4333 21.4574C11.4613 21.7124 10.5301 22.1029 9.66682 22.6173C9.19182 22.8917 8.79195 23.2791 8.50272 23.7452C8.2135 24.2113 8.04387 24.7416 8.00891 25.289V26.3139C8.01355 26.7122 8.17383 27.0928 8.45548 27.3745C8.73714 27.6562 9.11781 27.8164 9.5161 27.8211H21.558C21.9573 27.8199 22.34 27.6607 22.6224 27.3783C22.9048 27.0959 23.064 26.7132 23.0652 26.3139V25.289C23.0239 24.8239 22.8899 24.3717 22.671 23.9593V23.9649Z" fill="url(#paint7_linear_113_2192)" style="mix-blend-mode:multiply"/>
</g>
<defs>
<linearGradient id="paint0_linear_113_2192" x1="34.2809" y1="34" x2="5.72093" y2="5.99922" gradientUnits="userSpaceOnUse">
<stop stop-color="#692705"/>
<stop offset="1" stop-color="#823B00"/>
</linearGradient>
<radialGradient id="paint1_radial_113_2192" cx="0" cy="0" r="1" gradientUnits="userSpaceOnUse" gradientTransform="translate(-250.276 21.2142) scale(28.1832 28.1798)">
<stop stop-color="#B0670B"/>
<stop offset="1"/>
</radialGradient>
<radialGradient id="paint2_radial_113_2192" cx="0" cy="0" r="1" gradientUnits="userSpaceOnUse" gradientTransform="translate(5.41147 1.00877) scale(45.0224 45.0224)">
<stop stop-color="#E99C43"/>
<stop offset="1" stop-color="#9A4416"/>
</radialGradient>
<radialGradient id="paint3_radial_113_2192" cx="0" cy="0" r="1" gradientUnits="userSpaceOnUse" gradientTransform="translate(-74.7025 -10.7325) scale(57.3239 57.3377)">
<stop stop-color="#CFA04D"/>
<stop offset="1" stop-color="white"/>
</radialGradient>
<linearGradient id="paint4_linear_113_2192" x1="24.4732" y1="18.3475" x2="24.4732" y2="9.97266" gradientUnits="userSpaceOnUse">
<stop stop-color="#9E6F4F"/>
<stop offset="1" stop-color="#75533B"/>
</linearGradient>
<linearGradient id="paint5_linear_113_2192" x1="15.5438" y1="20.5583" x2="15.5438" y2="12.1929" gradientUnits="userSpaceOnUse">
<stop stop-color="#9E6F4F"/>
<stop offset="1" stop-color="#75533B"/>
</linearGradient>
<linearGradient id="paint6_linear_113_2192" x1="25.3533" y1="25.5926" x2="25.3533" y2="18.8806" gradientUnits="userSpaceOnUse">
<stop stop-color="#9E6F4F"/>
<stop offset="1" stop-color="#75533B"/>
</linearGradient>
<linearGradient id="paint7_linear_113_2192" x1="15.537" y1="27.8211" x2="15.537" y2="21.0901" gradientUnits="userSpaceOnUse">
<stop stop-color="#9E6F4F"/>
<stop offset="1" stop-color="#75533B"/>
</linearGradient>
</defs>
</svg>
