<svg width="40" height="40" viewBox="0 0 40 40" fill="none" xmlns="http://www.w3.org/2000/svg">
<path fill-rule="evenodd" clip-rule="evenodd" d="M19.5745 0.00455187C23.5473 -0.0802077 27.4554 1.02043 30.8001 3.16605C34.1448 5.31167 36.7745 8.40501 38.3538 12.0515C39.9331 15.6979 40.3903 19.7321 39.6671 23.6395C38.944 27.5469 37.0733 31.1503 34.2937 33.9901C31.514 36.8298 27.9514 38.7772 24.0604 39.5837C20.1693 40.3902 16.1262 40.0194 12.4468 38.5184C8.76746 37.0175 5.61859 34.4545 3.40194 31.1565C1.18528 27.8585 0.00131678 23.9748 0.00109903 20.0011C-0.0541656 14.754 1.97678 9.69986 5.64732 5.94996C9.31787 2.20007 14.3275 0.0615062 19.5745 0.00455187V0.00455187Z" fill="url(#paint0_linear_113_2191)"/>
<path style="mix-blend-mode:screen" fill-rule="evenodd" clip-rule="evenodd" d="M1.59174 25.9717C2.75741 29.8365 5.13713 33.223 8.37831 35.6294C11.6195 38.0358 15.5497 39.334 19.5865 39.3316C23.6233 39.3293 27.552 38.0266 30.7904 35.6165C34.0288 33.2064 36.4046 29.8171 37.5658 25.9509C36.1723 29.5929 33.7063 32.7262 30.4939 34.9367C27.2815 37.1472 23.4739 38.3307 19.5744 38.3309C19.2843 38.3309 18.9964 38.324 18.7109 38.3102C14.968 38.1391 11.3561 36.881 8.31701 34.6897C5.27788 32.4984 2.94325 29.4688 1.59864 25.9717H1.59174Z" fill="url(#paint1_radial_113_2191)"/>
<path fill-rule="evenodd" clip-rule="evenodd" d="M19.5745 0.488281C23.2511 0.48794 26.8453 1.57787 29.9025 3.62024C32.9596 5.66261 35.3425 8.56569 36.7497 11.9623C38.1569 15.359 38.5253 19.0967 37.8082 22.7027C37.0912 26.3087 35.3209 29.6211 32.7212 32.221C30.1216 34.8209 26.8094 36.5915 23.2034 37.3089C19.5975 38.0263 15.8597 37.6582 12.463 36.2513C9.06618 34.8444 6.16289 32.4618 4.12023 29.4049C2.07758 26.3479 0.987305 22.7538 0.987305 19.0772C0.987305 14.1474 2.94554 9.41952 6.43126 5.93347C9.91699 2.44741 14.6447 0.488739 19.5745 0.488281V0.488281Z" fill="url(#paint2_radial_113_2191)"/>
<g style="mix-blend-mode:screen" opacity="0.5">
<path fill-rule="evenodd" clip-rule="evenodd" d="M6.78001 6.28103C8.81103 4.22507 11.2817 2.65634 14.0064 1.69279C16.731 0.729244 19.6386 0.395954 22.5106 0.717987C21.5394 0.565109 20.5577 0.488308 19.5745 0.488281C16.8859 0.491514 14.23 1.07725 11.7895 2.20517C9.34904 3.33309 7.18192 4.97642 5.43732 7.02205C3.69272 9.06767 2.41206 11.467 1.6835 14.055C0.954945 16.6429 0.795777 19.358 1.21696 22.0133C0.894789 19.1411 1.22803 16.2332 2.19157 13.5082C3.15512 10.7833 4.72392 8.31231 6.78001 6.28103V6.28103Z" fill="#CA9E67"/>
</g>
<g style="mix-blend-mode:screen" opacity="0.5">
<path fill-rule="evenodd" clip-rule="evenodd" d="M38.1445 18.2358C38.1605 20.7893 37.6695 23.3205 36.6998 25.6827C35.7301 28.0449 34.301 30.191 32.4955 31.9967C30.69 33.8024 28.544 35.2316 26.1819 36.2015C23.8198 37.1714 21.2886 37.6627 18.7352 37.6469C19.0132 37.659 19.293 37.6642 19.5745 37.6642C22.0156 37.6644 24.4328 37.1838 26.6881 36.2498C28.9434 35.3158 30.9926 33.9467 32.7188 32.2207C34.445 30.4947 35.8143 28.4456 36.7485 26.1904C37.6827 23.9351 38.1635 21.518 38.1635 19.0769C38.1635 18.7954 38.1635 18.5139 38.1445 18.2358V18.2358Z" fill="#CA9E67"/>
</g>
<path style="mix-blend-mode:multiply" fill-rule="evenodd" clip-rule="evenodd" d="M16.1151 19.9165C13.255 18.7076 10.3189 17.654 7.52269 16.2896C6.78021 15.9546 6.09808 15.4994 5.5037 14.9425C5.27916 14.7526 5.10424 14.5109 4.9941 14.2383C4.88396 13.9656 4.84189 13.6702 4.87156 13.3777C5.02873 12.5435 5.96657 11.8682 6.65396 11.4779C6.77313 11.4088 6.89576 11.3431 7.01838 11.2792C7.99858 10.7897 9.01901 10.3852 10.0685 10.0703C11.2153 9.71103 12.3828 9.41569 13.5503 9.1359C14.4933 8.91137 15.4502 8.69548 16.3862 8.46923C17.2774 8.2568 18.1704 8.034 19.0495 7.77839C22.9113 6.64022 26.7438 5.4036 30.5538 4.10135C29.1598 3.07845 27.6298 2.2553 26.008 1.65576C25.331 1.87683 24.6591 2.11344 23.989 2.35697C22.2323 3.00154 20.4307 3.51645 18.5987 3.89755C16.9747 4.22703 15.3281 4.43315 13.673 4.51414C11.9306 4.58957 10.1854 4.5717 8.44496 4.46059L8.15135 4.44332C5.92567 6.17877 4.12557 8.39944 2.88823 10.9361C1.6509 13.4727 1.00902 16.2583 1.01148 19.0806C1.01148 19.2119 1.01148 19.3431 1.01148 19.4727L1.22044 19.5262C2.77484 19.9217 4.35862 20.2482 5.94239 20.5435C12.3949 21.7438 18.5607 23.9632 24.8491 25.7784C26.3448 26.2119 27.818 26.7197 29.2757 27.2689C31.1755 27.9839 33.0391 28.7697 34.9061 29.5573C35.1272 29.2384 35.3367 28.9108 35.5348 28.5746L35.2446 28.4468C32.5693 27.2516 29.9752 25.8837 27.2999 24.6903C23.597 23.0409 19.8457 21.5038 16.1134 19.92L16.1151 19.9165Z" fill="url(#paint3_radial_113_2191)"/>
<path d="M31.985 13.4093C31.985 13.3383 31.975 13.2673 31.964 13.1973C31.974 13.2633 31.981 13.3343 31.985 13.4093Z" fill="#C2AD9B"/>
<path d="M12.4106 13.3892C12.4056 13.3232 12.4006 13.2582 12.3906 13.1892C12.3996 13.2582 12.4066 13.3232 12.4106 13.3892Z" fill="#C2AD9B"/>
<path d="M8.03996 13.1934C8.02038 13.3017 8.00935 13.4113 8.00696 13.5214C8.00982 13.4114 8.02086 13.3017 8.03996 13.1934Z" fill="#C2AD9B"/>
<path d="M8.03897 19.9565C8.01867 20.0674 8.00795 20.1798 8.00696 20.2925C8.00977 20.1822 8.02081 20.0722 8.03996 19.9635L8.03897 19.9565Z" fill="#C2AD9B"/>
<path d="M8.03996 26.731C8.02032 26.8379 8.00928 26.9463 8.00696 27.055C8.00977 26.9463 8.02081 26.838 8.03996 26.731V26.731Z" fill="#C2AD9B"/>
<path d="M31.983 20.1566C31.983 20.0916 31.974 20.0266 31.964 19.9636C31.973 20.0276 31.979 20.0916 31.983 20.1566Z" fill="#C2AD9B"/>
<g style="mix-blend-mode:screen" opacity="0.5">
<path d="M29.7842 15.7248H16.2375C15.9483 15.7254 15.6619 15.669 15.3945 15.5588C15.1272 15.4486 14.8842 15.2868 14.6795 15.0825C14.4748 14.8783 14.3124 14.6357 14.2016 14.3686C14.0907 14.1015 14.0337 13.8151 14.0337 13.526V14.9642C14.0325 15.3915 14.1563 15.8097 14.3898 16.1676C14.6233 16.5254 14.9564 16.8071 15.348 16.9781C15.372 16.9671 15.395 16.9561 15.42 16.9461C15.4449 16.9361 15.4589 16.9261 15.4789 16.9191C15.5429 16.8961 15.6109 16.8841 15.6788 16.8661C15.7268 16.8541 15.7788 16.8372 15.8227 16.8282C15.8347 16.8282 15.8457 16.8212 15.8577 16.8192C15.9674 16.8 16.0783 16.789 16.1895 16.7862H29.7822C29.8737 16.7863 29.9652 16.792 30.056 16.8032C30.093 16.8032 30.128 16.8182 30.165 16.8242C30.2019 16.8302 30.2459 16.8391 30.2859 16.8481C30.3259 16.8571 30.3509 16.8591 30.3858 16.8671C30.4388 16.8821 30.4858 16.9061 30.5388 16.9251L30.6567 16.9691C30.7207 16.9421 30.7876 16.9191 30.8486 16.8861C30.8876 16.8652 30.9285 16.8462 30.9665 16.8232C31.1119 16.7318 31.246 16.6238 31.3663 16.5013C31.3883 16.4794 31.4043 16.4534 31.4253 16.4304C31.5218 16.3235 31.6076 16.2074 31.6811 16.0836C31.6941 16.0606 31.7141 16.0436 31.7261 16.0206C31.7381 15.9976 31.7541 15.9517 31.7701 15.9207C31.8001 15.8587 31.8271 15.7977 31.8511 15.7328C31.863 15.6998 31.881 15.6708 31.892 15.6328C31.903 15.5948 31.912 15.5399 31.924 15.4949C31.936 15.4499 31.948 15.3949 31.957 15.351C31.957 15.326 31.97 15.303 31.973 15.277C31.9882 15.1724 31.9959 15.0669 31.996 14.9612V13.5229C31.9964 13.813 31.9394 14.1004 31.8282 14.3683C31.7171 14.6363 31.554 14.8796 31.3484 15.0843C31.1428 15.289 30.8988 15.4509 30.6303 15.5608C30.3618 15.6708 30.0743 15.7265 29.7842 15.7248Z" fill="#BC886C"/>
<path d="M10.2198 15.7247C9.92984 15.7266 9.6424 15.6711 9.37402 15.5614C9.10563 15.4517 8.86158 15.2901 8.65591 15.0857C8.45025 14.8813 8.28703 14.6383 8.17566 14.3706C8.06428 14.1029 8.00695 13.8159 8.00696 13.5259V14.9642C8.00715 15.3942 8.13347 15.8148 8.37027 16.1739C8.60707 16.5329 8.94397 16.8146 9.33924 16.9841C9.36823 16.9711 9.39221 16.9501 9.42219 16.9391C9.43419 16.9341 9.44419 16.9241 9.45619 16.9201C9.52115 16.8961 9.59011 16.8841 9.65607 16.8661C9.70405 16.8531 9.75002 16.8371 9.79999 16.8281C9.81082 16.8246 9.82183 16.8216 9.83298 16.8191C9.94363 16.8 10.0555 16.789 10.1678 16.7862H10.2178C10.3073 16.7859 10.3968 16.7913 10.4856 16.8021C10.5236 16.8071 10.5606 16.8181 10.5976 16.8241C10.6345 16.8301 10.6765 16.8391 10.7155 16.8481C10.7545 16.8571 10.7775 16.8581 10.8065 16.8661C10.8614 16.8811 10.9064 16.9061 10.9654 16.9251L11.0823 16.969C11.1453 16.9421 11.2122 16.9201 11.2732 16.8871C11.3122 16.8651 11.3531 16.8471 11.3911 16.8231C11.5365 16.7322 11.6707 16.6246 11.7909 16.5023C11.8119 16.4803 11.8279 16.4553 11.8479 16.4324C11.9447 16.3248 12.0308 16.2079 12.1047 16.0835C12.1177 16.0616 12.1377 16.0446 12.1497 16.0226C12.1617 16.0006 12.1777 15.9536 12.1937 15.9226C12.2237 15.8607 12.2507 15.7987 12.2747 15.7337C12.2866 15.7007 12.3046 15.6718 12.3156 15.6338C12.3266 15.5958 12.3356 15.5418 12.3476 15.4958C12.3596 15.4499 12.3716 15.3959 12.3806 15.3519C12.3806 15.327 12.3936 15.304 12.3966 15.278C12.4118 15.1734 12.4195 15.0678 12.4196 14.9621V13.5239C12.4198 13.8129 12.3631 14.0991 12.2527 14.3662C12.1422 14.6333 11.9802 14.876 11.7759 15.0804C11.5716 15.2848 11.329 15.4469 11.062 15.5575C10.795 15.668 10.5088 15.7249 10.2198 15.7247V15.7247Z" fill="#BC886C"/>
<path d="M10.2198 22.5043C9.92918 22.5046 9.64141 22.4475 9.37289 22.3365C9.10436 22.2254 8.86036 22.0625 8.65485 21.8571C8.44933 21.6517 8.28633 21.4078 8.17516 21.1393C8.06399 20.8708 8.00683 20.5831 8.00696 20.2925V21.7287C8.00732 22.1547 8.13094 22.5716 8.36291 22.9289C8.59487 23.2862 8.92527 23.5688 9.31425 23.7426C9.34323 23.7286 9.37122 23.7156 9.40121 23.7036C9.43119 23.6916 9.44018 23.6836 9.46117 23.6766C9.52514 23.6536 9.5931 23.6407 9.66106 23.6237C9.70903 23.6107 9.76102 23.5947 9.805 23.5857C9.81699 23.5857 9.82797 23.5777 9.83996 23.5757C9.9497 23.5574 10.0606 23.5467 10.1718 23.5437H10.2218C10.3113 23.5435 10.4008 23.5488 10.4896 23.5597C10.5276 23.5597 10.5646 23.5757 10.6016 23.5817C10.6385 23.5877 10.6805 23.5957 10.7195 23.6057C10.7585 23.6157 10.7815 23.6147 10.8104 23.6237C10.8654 23.6387 10.9104 23.6637 10.9694 23.6826C11.0283 23.7016 11.0593 23.7146 11.1043 23.7336C11.1602 23.7086 11.2202 23.6887 11.2752 23.6587C11.3302 23.6287 11.3562 23.6187 11.3941 23.5937C11.5395 23.5024 11.6737 23.3944 11.7939 23.2719C11.8139 23.2509 11.8299 23.2259 11.8489 23.2049C11.9464 23.0965 12.0328 22.9787 12.1067 22.8531C12.1197 22.8311 12.1397 22.8141 12.1517 22.7921C12.1637 22.7701 12.1797 22.7222 12.1967 22.6922C12.2267 22.6292 12.2547 22.5663 12.2786 22.5003C12.2906 22.4683 12.3086 22.4393 12.3186 22.4063C12.3286 22.3733 12.3396 22.3134 12.3506 22.2674C12.3616 22.2214 12.3756 22.1675 12.3846 22.1225C12.3846 22.0975 12.3976 22.0745 12.4006 22.0495C12.4158 21.9446 12.4235 21.8387 12.4236 21.7327V20.2965C12.4233 20.8812 12.1912 21.4421 11.778 21.8559C11.3649 22.2698 10.8045 22.503 10.2198 22.5043V22.5043Z" fill="#BC886C"/>
<path d="M10.2198 29.2665C9.92918 29.2668 9.64141 29.2097 9.37289 29.0987C9.10436 28.9876 8.86036 28.8248 8.65485 28.6193C8.44933 28.4139 8.28633 28.17 8.17516 27.9015C8.06399 27.633 8.00683 27.3453 8.00696 27.0547V28.5009C8.00683 28.7915 8.06399 29.0793 8.17516 29.3477C8.28633 29.6162 8.44933 29.8601 8.65485 30.0655C8.86036 30.271 9.10436 30.4338 9.37289 30.5449C9.64141 30.6559 9.92918 30.713 10.2198 30.7127C10.4018 30.7103 10.5827 30.6852 10.7585 30.6378C10.8084 30.6258 10.8584 30.6088 10.9044 30.5928C11.032 30.5507 11.1555 30.4968 11.2732 30.4319C11.3132 30.4099 11.3542 30.3919 11.3921 30.3669C11.5375 30.2756 11.6717 30.1676 11.7919 30.0451C11.8119 30.0241 11.8279 30.0001 11.8469 29.9781C11.9444 29.8698 12.0308 29.7519 12.1047 29.6263C12.1177 29.6043 12.1377 29.5873 12.1497 29.5654C12.1617 29.5434 12.1777 29.4954 12.1947 29.4654C12.2247 29.4024 12.2527 29.3395 12.2766 29.2735C12.2886 29.2415 12.3066 29.2125 12.3166 29.1795C12.3266 29.1466 12.3376 29.0866 12.3486 29.0406C12.3596 28.9946 12.3736 28.9407 12.3826 28.8957C12.3826 28.8707 12.3956 28.8477 12.3986 28.8227C12.4138 28.7175 12.4215 28.6113 12.4216 28.5049V27.0627C12.4203 27.6464 12.1879 28.2059 11.7753 28.6188C11.3628 29.0318 10.8035 29.2647 10.2198 29.2665V29.2665Z" fill="#BC886C"/>
<path d="M29.7842 22.5041H16.2375C15.652 22.5028 15.0911 22.2691 14.6778 21.8543C14.2646 21.4396 14.0329 20.8778 14.0337 20.2923V21.7285C14.0326 22.1536 14.1548 22.5698 14.3854 22.9269C14.616 23.284 14.9451 23.5666 15.333 23.7404C15.36 23.7274 15.387 23.7144 15.416 23.7034C15.4449 23.6924 15.4549 23.6834 15.4749 23.6764C15.5389 23.6535 15.6069 23.6405 15.6748 23.6235C15.7228 23.6105 15.7748 23.5945 15.8187 23.5855C15.8307 23.5855 15.8417 23.5775 15.8537 23.5755C15.9634 23.5572 16.0743 23.5465 16.1855 23.5435H29.7782C29.869 23.5433 29.9598 23.5486 30.05 23.5595C30.088 23.5595 30.123 23.5755 30.161 23.5815C30.1989 23.5875 30.2409 23.5965 30.2809 23.6055C30.3209 23.6145 30.3439 23.6155 30.3738 23.6235C30.4278 23.6395 30.4738 23.6635 30.5298 23.6825L30.6607 23.7314C30.7216 23.7085 30.7813 23.6825 30.8396 23.6535C30.8796 23.6315 30.9196 23.6135 30.9585 23.5895C31.1037 23.4976 31.2379 23.3893 31.3583 23.2667C31.3793 23.2457 31.3963 23.2197 31.4163 23.1977C31.5129 23.0902 31.5986 22.9734 31.6722 22.8489C31.6861 22.8259 31.7061 22.8089 31.7181 22.7859C31.7301 22.763 31.7461 22.717 31.7621 22.686C31.7923 22.6248 31.8193 22.5621 31.843 22.4981C31.855 22.4661 31.873 22.4361 31.884 22.3981C31.895 22.3602 31.904 22.3052 31.916 22.2602C31.928 22.2152 31.94 22.1603 31.949 22.1163C31.949 22.0913 31.962 22.0673 31.965 22.0424C31.9802 21.9378 31.9879 21.8322 31.988 21.7265V20.2903C31.9875 20.8755 31.7554 21.4368 31.3425 21.8516C30.9296 22.2664 30.3694 22.5009 29.7842 22.5041Z" fill="#BC886C"/>
<path d="M29.7841 29.2665H16.2375C15.9472 29.2672 15.6597 29.2103 15.3915 29.0993C15.1233 28.9883 14.8797 28.8253 14.6748 28.6197C14.47 28.414 14.3078 28.1699 14.1978 27.9013C14.0877 27.6327 14.032 27.345 14.0337 27.0547V28.5009C14.032 28.7912 14.0877 29.0789 14.1978 29.3475C14.3078 29.6161 14.47 29.8603 14.6748 30.0659C14.8797 30.2715 15.1233 30.4345 15.3915 30.5455C15.6597 30.6565 15.9472 30.7134 16.2375 30.7127H29.7841C29.9675 30.7108 30.1498 30.6856 30.3268 30.6378C30.3768 30.6258 30.4268 30.6088 30.4728 30.5928C30.6014 30.5507 30.7259 30.4968 30.8446 30.4319C30.8845 30.4099 30.9255 30.3909 30.9635 30.3669C31.1091 30.2755 31.2433 30.1671 31.3633 30.0441C31.3843 30.0231 31.4003 29.9981 31.4203 29.9761C31.5174 29.8681 31.6035 29.7506 31.6771 29.6253C31.6901 29.6033 31.7101 29.5863 31.7231 29.5633C31.7361 29.5404 31.7511 29.4934 31.7671 29.4634C31.7971 29.4004 31.825 29.3374 31.849 29.2725C31.861 29.2405 31.879 29.2115 31.889 29.1785C31.899 29.1456 31.91 29.0856 31.921 29.0396C31.932 28.9937 31.946 28.9397 31.955 28.8947C31.955 28.8697 31.968 28.8467 31.971 28.8217C31.9862 28.7165 31.9939 28.6103 31.9939 28.5039V27.0617C31.9924 27.6468 31.7589 28.2075 31.3446 28.6207C30.9304 29.034 30.3693 29.2662 29.7841 29.2665V29.2665Z" fill="#BC886C"/>
</g>
<path d="M31.9959 12.1698C31.9943 12.0585 31.9839 11.9476 31.965 11.838C31.965 11.825 31.958 11.813 31.955 11.8C31.946 11.75 31.93 11.7 31.917 11.654C31.904 11.6081 31.889 11.5251 31.867 11.4632C31.859 11.4432 31.847 11.4242 31.839 11.4042C31.819 11.3522 31.7931 11.3042 31.7691 11.2523C31.7349 11.1794 31.6965 11.1087 31.6541 11.0404C31.6241 10.9914 31.5912 10.9464 31.5542 10.9005C31.5172 10.8545 31.5102 10.8305 31.4832 10.8005C31.4402 10.7479 31.3945 10.6975 31.3463 10.6496V10.6496C31.1824 10.4901 30.9946 10.3573 30.7896 10.2558C30.7706 10.2458 30.7576 10.2278 30.7376 10.2188C30.7176 10.2098 30.7027 10.2068 30.6857 10.1988C30.6367 10.1768 30.5857 10.1609 30.5337 10.1419C30.4818 10.1229 30.4338 10.0979 30.3758 10.0829C30.3459 10.0749 30.3139 10.0719 30.2839 10.0649C30.2539 10.0579 30.2039 10.0479 30.1629 10.0409C30.122 10.0339 30.09 10.0229 30.053 10.0189C29.9628 10.0077 29.872 10.002 29.7812 10.002H16.1885C16.0772 10.0039 15.9663 10.0146 15.8567 10.0339C15.8447 10.0339 15.8337 10.0409 15.8227 10.0429C15.7727 10.0529 15.7228 10.0689 15.6778 10.0819C15.6118 10.0989 15.5439 10.1109 15.4779 10.1339C15.4569 10.1419 15.4379 10.1529 15.4179 10.1609C15.378 10.1769 15.341 10.1948 15.303 10.2128C15.2206 10.2516 15.1406 10.295 15.0631 10.3428C15.0272 10.3658 14.9922 10.3877 14.9572 10.4127C14.8744 10.472 14.7955 10.5368 14.7213 10.6066C14.7023 10.6256 14.6803 10.6416 14.6613 10.6606C14.5716 10.7533 14.49 10.8536 14.4175 10.9604C14.3985 10.9874 14.3845 11.0164 14.3675 11.0444C14.3153 11.1267 14.2689 11.2125 14.2286 11.3012C14.2106 11.3412 14.1946 11.3812 14.1796 11.4222C14.1466 11.5096 14.1192 11.5991 14.0977 11.69C14.0887 11.73 14.0767 11.769 14.0697 11.81C14.0443 11.9441 14.0316 12.0803 14.0317 12.2168V13.524C14.033 13.3077 14.0667 13.0928 14.1316 12.8864C14.1476 12.8344 14.1606 12.7814 14.1796 12.7305C14.2399 12.5675 14.3198 12.4125 14.4175 12.2687C14.4265 12.2547 14.4395 12.2437 14.4485 12.2307C14.577 12.0539 14.7313 11.8972 14.9062 11.766C14.9232 11.753 14.9392 11.736 14.9572 11.724C14.9922 11.699 15.0272 11.677 15.0631 11.654C15.1406 11.6062 15.2206 11.5629 15.303 11.5241C15.5947 11.3866 15.913 11.3143 16.2355 11.3122H29.7821C29.9103 11.314 30.0381 11.327 30.1639 11.3512C30.2413 11.3655 30.3178 11.3845 30.3928 11.4082C30.4408 11.4222 30.4928 11.4352 30.5347 11.4522C30.6028 11.477 30.6695 11.5054 30.7346 11.5371C30.7526 11.5451 30.7696 11.5561 30.7886 11.5661C30.9931 11.6678 31.1806 11.8006 31.3443 11.9599V11.9599C31.4198 12.0385 31.4892 12.1227 31.5522 12.2118C31.6679 12.3651 31.7627 12.5331 31.834 12.7115V12.7115C31.85 12.7525 31.861 12.7954 31.874 12.8374C31.9049 12.9257 31.9303 13.0158 31.95 13.1073C31.9535 13.1261 31.9555 13.1451 31.956 13.1642V13.1922C31.967 13.2622 31.973 13.3331 31.977 13.4041C31.977 13.4441 31.989 13.4811 31.989 13.52V12.1698H31.9959Z" fill="#4F2806"/>
<path d="M12.3916 11.839C12.3916 11.826 12.3846 11.814 12.3816 11.801C12.3726 11.7511 12.3566 11.7011 12.3437 11.6551C12.3307 11.6091 12.3157 11.5262 12.2937 11.4652C12.2867 11.4442 12.2747 11.4262 12.2667 11.4063C12.2457 11.3533 12.2207 11.3063 12.1957 11.2533C12.1613 11.1812 12.1233 11.1108 12.0818 11.0424C12.0508 10.9945 12.0178 10.9485 11.9819 10.9035C11.9459 10.8585 11.9389 10.8336 11.9129 10.8036C11.8689 10.7516 11.8239 10.7036 11.776 10.6536C11.6106 10.4921 11.4211 10.3573 11.2143 10.2539C11.1953 10.2449 11.1823 10.2269 11.1633 10.2179C11.1443 10.2089 11.1303 10.2069 11.1153 10.1999C11.0653 10.1769 11.0154 10.1609 10.9614 10.1419C10.9074 10.1229 10.8555 10.0969 10.7995 10.0809C10.7715 10.074 10.7425 10.071 10.7145 10.065C10.6865 10.059 10.6336 10.048 10.5936 10.04C10.5536 10.032 10.5146 10.022 10.4737 10.017C10.3888 10.0063 10.3034 10.0006 10.2178 10H10.1678C10.0566 10.002 9.94562 10.0127 9.83601 10.032C9.82402 10.032 9.81303 10.039 9.80203 10.041C9.75206 10.051 9.70208 10.067 9.65711 10.08C9.59114 10.097 9.52318 10.109 9.45722 10.1319C9.43623 10.1399 9.41724 10.1509 9.39725 10.1589C9.35728 10.1749 9.32029 10.1929 9.28231 10.2109C9.19965 10.2494 9.11954 10.2931 9.04245 10.3418C9.00647 10.3638 8.97049 10.3858 8.93651 10.4108C8.85316 10.4699 8.77401 10.5346 8.69963 10.6047C8.68064 10.6237 8.65866 10.6397 8.63967 10.6596C8.54898 10.7518 8.467 10.8522 8.39479 10.9595C8.3758 10.9865 8.36181 11.0155 8.34382 11.0434C8.29152 11.1262 8.24477 11.2123 8.2039 11.3013C8.18591 11.3403 8.16992 11.3802 8.15493 11.4212C8.12114 11.5085 8.09341 11.598 8.07197 11.6891C8.06197 11.7291 8.04999 11.768 8.04299 11.809C8.0166 11.943 8.00288 12.0792 8.00201 12.2158V13.5231C8.0044 13.4131 8.01542 13.3035 8.03499 13.1953C8.03499 13.1823 8.03499 13.1693 8.03499 13.1563C8.03401 13.1433 8.03401 13.1303 8.03499 13.1173C8.04198 13.0764 8.05398 13.0373 8.06398 12.9974C8.07397 12.9544 8.08996 12.9134 8.10296 12.8715C8.12823 12.7823 8.15928 12.6948 8.19591 12.6096V12.6096C8.2368 12.5209 8.28354 12.4351 8.33583 12.3527C8.43563 12.194 8.55519 12.0486 8.69164 11.9199V11.9199C8.766 11.8499 8.84515 11.7851 8.92851 11.7261V11.7261C9.02951 11.6552 9.13652 11.5933 9.24833 11.5412L9.27432 11.5262C9.3123 11.5082 9.34928 11.4902 9.38826 11.4742C9.46466 11.4454 9.54277 11.4214 9.62214 11.4023C9.67811 11.3863 9.73208 11.3673 9.79005 11.3563C10.0919 11.2934 10.4042 11.3013 10.7025 11.3793L10.7195 11.3843C11.1144 11.4788 11.4757 11.6801 11.764 11.9659V11.9659C11.794 11.9959 11.8169 12.0319 11.8449 12.0659C11.9267 12.1572 12.0012 12.2548 12.0678 12.3577C12.0888 12.3917 12.1058 12.4277 12.1248 12.4637C12.1438 12.4996 12.1647 12.5326 12.1817 12.5686C12.2681 12.7416 12.3307 12.9255 12.3676 13.1153C12.3703 13.1295 12.372 13.1439 12.3726 13.1583C12.3726 13.1723 12.3726 13.1873 12.3726 13.2003C12.3826 13.2652 12.3876 13.3302 12.3926 13.4002C12.3926 13.4451 12.4056 13.4871 12.4056 13.5321V12.1698C12.4096 12.0593 12.4049 11.9487 12.3916 11.839Z" fill="#4F2806"/>
<path d="M10.8085 16.8612C10.7795 16.8532 10.7475 16.8502 10.7175 16.8432C10.6875 16.8362 10.6396 16.8262 10.5996 16.8192C10.5596 16.8122 10.5256 16.8022 10.4877 16.7972C10.3988 16.7864 10.3093 16.781 10.2198 16.7813H10.1698C10.0576 16.7841 9.94566 16.7951 9.835 16.8142C9.82386 16.8166 9.81284 16.8196 9.80202 16.8232C9.75204 16.8322 9.70207 16.8482 9.6581 16.8612C9.59014 16.8792 9.52118 16.8912 9.45821 16.9152C9.44622 16.9152 9.43621 16.9292 9.42422 16.9342C9.39423 16.9452 9.37025 16.9662 9.34127 16.9791C9.19162 17.0407 9.04917 17.1184 8.9165 17.211C8.88251 17.236 8.85354 17.263 8.81656 17.289C8.68009 17.3996 8.55728 17.5261 8.45074 17.6658C8.43575 17.6868 8.41677 17.7038 8.40278 17.7247C8.29258 17.8853 8.20419 18.0597 8.13992 18.2435C8.12493 18.2865 8.11293 18.3294 8.09994 18.3744C8.03791 18.5719 8.00427 18.7771 8 18.9841V19.6357V20.2924C8.00099 20.1797 8.01169 20.0674 8.03198 19.9565V19.9465C8.08418 19.6074 8.21605 19.2854 8.41677 19.007C8.42636 18.9965 8.43537 18.9855 8.44376 18.9741V18.9741C8.69874 18.636 9.04574 18.3785 9.44322 18.2325C9.51018 18.2085 9.57813 18.1875 9.64809 18.1695C9.83111 18.1188 10.0199 18.0919 10.2098 18.0895C10.3373 18.091 10.4644 18.1037 10.5896 18.1275C10.6526 18.1385 10.7115 18.1555 10.7715 18.1715C10.8315 18.1875 10.8964 18.2065 10.9574 18.2295C11.2604 18.3374 11.5363 18.5099 11.7659 18.7352V18.7352C11.8411 18.8132 11.9102 18.8967 11.9728 18.985V18.985C12.2568 19.3611 12.4112 19.8191 12.4126 20.2903V18.9391C12.4108 18.8295 12.4008 18.7203 12.3826 18.6123C12.3826 18.5983 12.3746 18.5863 12.3716 18.5733C12.3626 18.5223 12.3466 18.4733 12.3337 18.4264C12.3207 18.3794 12.3057 18.3004 12.2847 18.2395C12.2767 18.2185 12.2647 18.2005 12.2567 18.1795C12.2357 18.1265 12.2107 18.0795 12.1857 18.0256C12.1513 17.9541 12.1133 17.8844 12.0718 17.8167C12.0408 17.7687 12.0078 17.7167 11.9718 17.6758C11.9359 17.6348 11.9289 17.6078 11.9029 17.5758C11.8589 17.5239 11.8139 17.4759 11.7659 17.4259C11.6015 17.2663 11.4134 17.1331 11.2083 17.0311C11.1893 17.0211 11.1753 17.0031 11.1563 16.9942C11.1373 16.9852 11.1223 16.9831 11.1063 16.9752L11.0723 16.9622L10.9554 16.9182C10.9134 16.9012 10.8634 16.8762 10.8085 16.8612Z" fill="#4F2806"/>
<path d="M10.8085 23.6237C10.7795 23.6147 10.7475 23.6127 10.7175 23.6057C10.6876 23.5987 10.6396 23.5887 10.5996 23.5817C10.5596 23.5747 10.5256 23.5647 10.4877 23.5597C10.3988 23.5488 10.3093 23.5435 10.2198 23.5437H10.1698C10.0586 23.5467 9.94775 23.5574 9.83801 23.5757C9.82602 23.5757 9.81504 23.5827 9.80304 23.5857C9.75407 23.5947 9.70308 23.6107 9.65911 23.6237C9.59314 23.6407 9.52518 23.6536 9.45922 23.6766C9.43823 23.6836 9.42024 23.6956 9.39925 23.7036C9.37827 23.7116 9.34128 23.7286 9.3123 23.7426L9.28532 23.7546C9.20265 23.7931 9.12253 23.8368 9.04544 23.8855C9.00946 23.9075 8.97349 23.9295 8.9385 23.9545C8.85592 24.013 8.77775 24.0774 8.70462 24.1474C8.68363 24.1664 8.66166 24.1824 8.64167 24.2023C8.55161 24.2948 8.46999 24.3952 8.3978 24.5022C8.37881 24.5282 8.36382 24.5572 8.34683 24.5852C8.29453 24.6672 8.24779 24.7527 8.20691 24.841C8.18892 24.881 8.17291 24.921 8.15792 24.9619C8.12412 25.0485 8.09641 25.1374 8.07497 25.2278C8.06498 25.2678 8.05298 25.3058 8.04598 25.3467C8.01984 25.4784 8.00612 25.6123 8.005 25.7465V26.4042V27.0538C8.00732 26.9452 8.01836 26.8369 8.03799 26.73C8.03799 26.703 8.03799 26.676 8.04598 26.65C8.05298 26.6091 8.06498 26.5711 8.07497 26.5311C8.07997 26.5091 8.08897 26.4881 8.09497 26.4651C8.124 26.3555 8.16143 26.2482 8.20691 26.1443V26.1443C8.248 26.0558 8.29474 25.97 8.34683 25.8874V25.8874C8.36482 25.8605 8.3788 25.8315 8.39679 25.8055C8.43377 25.7515 8.47975 25.7056 8.52172 25.6536C8.67017 25.4734 8.84627 25.3179 9.04344 25.1928C9.06443 25.1798 9.08742 25.1698 9.10841 25.1568C9.20126 25.1011 9.29814 25.0523 9.39825 25.0109C9.48283 24.979 9.56928 24.9523 9.65711 24.931V24.931C9.83946 24.8803 10.0276 24.8535 10.2168 24.851C10.3443 24.8528 10.4714 24.8658 10.5966 24.89C10.6596 24.901 10.7185 24.917 10.7785 24.933C10.8385 24.949 10.9034 24.9689 10.9644 24.9909C11.2675 25.0992 11.5434 25.2721 11.773 25.4977V25.4977C11.8479 25.5762 11.917 25.6601 11.9799 25.7485V25.7485C12.2639 26.1249 12.4182 26.5833 12.4196 27.0548V25.7025C12.4178 25.5927 12.4078 25.4831 12.3896 25.3747C12.3896 25.3617 12.3816 25.3497 12.3786 25.3357C12.3696 25.2858 12.3536 25.2358 12.3407 25.1898C12.3277 25.1438 12.3127 25.0629 12.2917 25.0029C12.2837 24.982 12.2717 24.964 12.2637 24.943C12.2427 24.89 12.2177 24.843 12.1927 24.789C12.1585 24.7174 12.1205 24.6477 12.0788 24.5802C12.0478 24.5312 12.0148 24.4802 11.9788 24.4392C11.9429 24.3982 11.9359 24.3703 11.9099 24.3393C11.8659 24.2873 11.8209 24.2393 11.773 24.1894C11.6089 24.028 11.4207 23.8932 11.2153 23.7896C11.1963 23.7806 11.1823 23.7626 11.1633 23.7536C11.1443 23.7446 11.1293 23.7416 11.1133 23.7346L11.0973 23.7286C11.0524 23.7096 11.0074 23.6946 10.9624 23.6776C10.9174 23.6606 10.8635 23.6387 10.8085 23.6237Z" fill="#4F2806"/>
<path d="M30.3838 16.8622C30.3528 16.8542 30.3199 16.8512 30.2839 16.8432C30.2479 16.8352 30.2039 16.8262 30.1629 16.8192C30.122 16.8122 30.091 16.8022 30.054 16.7982C29.9631 16.787 29.8717 16.7813 29.7801 16.7812H16.1875C16.0763 16.7841 15.9653 16.7951 15.8557 16.8142C15.8437 16.8142 15.8327 16.8212 15.8207 16.8232C15.7717 16.8322 15.7208 16.8492 15.6768 16.8612C15.6108 16.8792 15.5429 16.8912 15.4769 16.9142C15.4569 16.9212 15.4379 16.9332 15.4179 16.9412C15.3979 16.9492 15.37 16.9621 15.346 16.9731L15.303 16.9931C15.2203 17.0313 15.1402 17.0747 15.0631 17.1231C15.0272 17.1451 14.9912 17.1671 14.9572 17.192C14.8747 17.2511 14.7962 17.3155 14.7223 17.3849C14.7023 17.4039 14.6803 17.4209 14.6603 17.4399C14.5709 17.5327 14.4896 17.633 14.4175 17.7397C14.3985 17.7667 14.3845 17.7957 14.3665 17.8237C14.3151 17.9056 14.269 17.9907 14.2286 18.0786C14.2106 18.1185 14.1946 18.1585 14.1796 18.1995C14.1466 18.2862 14.1192 18.375 14.0977 18.4653C14.0887 18.5053 14.0767 18.5443 14.0697 18.5843C14.0446 18.7161 14.0319 18.8499 14.0317 18.9841V19.6357V20.2923C14.0326 20.1161 14.0548 19.9406 14.0977 19.7696C14.1106 19.7176 14.1286 19.6697 14.1446 19.6177C14.1917 19.467 14.2557 19.3222 14.3355 19.186C14.3465 19.167 14.3555 19.146 14.3675 19.127C14.3795 19.108 14.3985 19.07 14.4175 19.044C14.4665 18.9766 14.5196 18.9122 14.5764 18.8511C14.7346 18.6702 14.9213 18.5162 15.1291 18.3954C15.1861 18.3624 15.243 18.3294 15.303 18.3014C15.358 18.2764 15.4149 18.2545 15.4719 18.2335C15.5289 18.2125 15.6058 18.1885 15.6718 18.1705C15.8541 18.1199 16.0423 18.093 16.2315 18.0905H29.7782C29.9466 18.092 30.1142 18.1128 30.2779 18.1525C30.3109 18.1605 30.3409 18.1725 30.3778 18.1815C30.4833 18.2091 30.5865 18.2445 30.6867 18.2874V18.2874C30.7356 18.3094 30.7866 18.3374 30.8286 18.3634C30.9013 18.4 30.972 18.4403 31.0405 18.4843C31.0914 18.5193 31.1404 18.5623 31.1834 18.6013C31.2969 18.6945 31.4007 18.7989 31.4932 18.9131C31.5132 18.9371 31.5342 18.9601 31.5532 18.985C31.5872 19.03 31.6192 19.076 31.6531 19.124C31.6955 19.1922 31.7342 19.2626 31.7691 19.3349V19.3349C31.8548 19.5073 31.917 19.6905 31.954 19.8796C31.9566 19.8934 31.9583 19.9075 31.959 19.9215C31.958 19.9355 31.958 19.9495 31.959 19.9635C31.969 20.0265 31.974 20.0915 31.978 20.1564C31.978 20.2024 31.9919 20.2454 31.9919 20.2923V18.9401C31.9903 18.8295 31.9799 18.7192 31.961 18.6102C31.961 18.5963 31.954 18.5853 31.951 18.5713C31.942 18.5223 31.926 18.4713 31.913 18.4274C31.8995 18.3633 31.8828 18.2999 31.863 18.2375C31.856 18.2165 31.844 18.1975 31.836 18.1775C31.8151 18.1255 31.7901 18.0775 31.7661 18.0256C31.731 17.9534 31.6923 17.883 31.6501 17.8147C31.6202 17.7667 31.5882 17.7207 31.5502 17.6758C31.5122 17.6308 31.5062 17.6078 31.4812 17.5758C31.4412 17.5279 31.3993 17.4819 31.3553 17.4369L31.3473 17.4299C31.3253 17.4079 31.2993 17.3909 31.2763 17.3699C31.2015 17.2978 31.1216 17.2311 31.0375 17.17C30.9965 17.1421 30.9525 17.1201 30.9105 17.0951C30.8536 17.0611 30.7986 17.0221 30.7386 16.9951C30.7206 16.9871 30.7017 16.9831 30.6837 16.9751C30.6657 16.9671 30.6587 16.9661 30.6467 16.9611L30.5288 16.9172C30.4848 16.9012 30.4368 16.8772 30.3838 16.8622Z" fill="#4F2806"/>
<path d="M30.3798 23.6237C30.3499 23.6157 30.3179 23.6127 30.2869 23.6057C30.2559 23.5987 30.2069 23.5887 30.167 23.5817C30.127 23.5747 30.094 23.5647 30.056 23.5597C29.9658 23.5488 29.875 23.5435 29.7842 23.5437H16.1915C16.0803 23.5467 15.9695 23.5574 15.8597 23.5757C15.8477 23.5757 15.8367 23.5827 15.8247 23.5857C15.7758 23.5947 15.7248 23.6107 15.6808 23.6237C15.6148 23.6407 15.5469 23.6536 15.4809 23.6766C15.4609 23.6836 15.4419 23.6946 15.4219 23.7036C15.402 23.7126 15.366 23.7276 15.339 23.7406L15.307 23.7556C15.2244 23.7934 15.1443 23.8365 15.0671 23.8845C15.0312 23.9075 14.9952 23.9295 14.9612 23.9545C14.8785 24.0132 14.8 24.0777 14.7263 24.1474C14.7063 24.1664 14.6844 24.1824 14.6644 24.2023C14.5751 24.2953 14.4939 24.3956 14.4215 24.5022C14.4025 24.5292 14.3885 24.5582 14.3705 24.5861C14.3189 24.6682 14.2728 24.7537 14.2326 24.842C14.2146 24.882 14.1986 24.922 14.1836 24.963C14.1506 25.0497 14.1232 25.1385 14.1017 25.2288C14.0927 25.2688 14.0807 25.3068 14.0737 25.3478C14.0485 25.4795 14.0358 25.6134 14.0357 25.7475V26.4052V27.0548C14.0367 26.8786 14.0588 26.7031 14.1017 26.5321C14.1147 26.4801 14.1326 26.4322 14.1486 26.3802C14.1955 26.2294 14.2596 26.0846 14.3395 25.9484C14.3505 25.9284 14.3595 25.9084 14.3715 25.8895C14.3835 25.8705 14.4025 25.8325 14.4215 25.8055C14.4708 25.7383 14.5239 25.6739 14.5804 25.6126C14.7384 25.4317 14.9251 25.278 15.1331 25.1579C15.1901 25.1249 15.247 25.0909 15.307 25.0579C15.362 25.0319 15.419 25.0109 15.4759 24.9889C15.5329 24.967 15.6098 24.945 15.6758 24.927C15.858 24.8755 16.0462 24.8483 16.2355 24.846H29.7822C29.9506 24.8477 30.1183 24.8688 30.2819 24.909C30.2929 24.909 30.3019 24.916 30.3129 24.919C30.4401 24.9487 30.5642 24.9901 30.6837 25.0429C30.757 25.0772 30.8284 25.1156 30.8976 25.1579C30.9435 25.1858 30.9925 25.2088 31.0365 25.2398C31.1299 25.3052 31.2181 25.3777 31.3003 25.4567C31.3815 25.5359 31.4567 25.6211 31.5252 25.7115C31.5332 25.7225 31.5422 25.7315 31.5502 25.7425C31.6263 25.8461 31.6932 25.9561 31.7501 26.0714L31.7611 26.0923C31.7861 26.1433 31.8111 26.1923 31.8321 26.2452C31.8411 26.2672 31.8461 26.2912 31.853 26.3142C31.893 26.4195 31.9244 26.5278 31.947 26.638C31.953 26.666 31.952 26.695 31.956 26.724C31.96 26.753 31.962 26.786 31.965 26.816C31.9775 26.8927 31.9855 26.9701 31.989 27.0478V25.7025C31.9872 25.5927 31.9771 25.4831 31.959 25.3747C31.959 25.3617 31.951 25.3497 31.948 25.3357C31.939 25.2858 31.923 25.2358 31.91 25.1908C31.897 25.1459 31.883 25.0639 31.861 25.0039C31.853 24.9829 31.8411 24.964 31.8331 24.943C31.8121 24.89 31.7871 24.843 31.7621 24.79C31.7277 24.7182 31.6897 24.6482 31.6482 24.5802C31.6172 24.5322 31.5842 24.4862 31.5482 24.4402C31.5122 24.3943 31.5052 24.3713 31.4792 24.3403C31.4373 24.2903 31.3933 24.2403 31.3473 24.1954C31.3333 24.1814 31.3163 24.1704 31.3013 24.1564C31.2189 24.0776 31.1307 24.0051 31.0375 23.9395C30.9995 23.9125 30.9575 23.8925 30.9176 23.8685C30.8591 23.8302 30.7987 23.7948 30.7366 23.7626C30.7207 23.7546 30.7017 23.7496 30.6847 23.7426L30.6617 23.7336L30.5308 23.6847C30.4838 23.6637 30.4338 23.6397 30.3798 23.6237Z" fill="#4F2806"/>
<g style="mix-blend-mode:multiply" opacity="0.75">
<path d="M31.962 13.1932V13.1652C31.9615 13.1461 31.9595 13.1271 31.956 13.1083C31.9363 13.0168 31.9109 12.9267 31.88 12.8384C31.866 12.7964 31.856 12.7535 31.8401 12.7125C31.7687 12.5342 31.6739 12.3661 31.5582 12.2128C31.4953 12.1238 31.4258 12.0396 31.3503 11.9609V11.9609C31.1866 11.8017 30.9991 11.6688 30.7946 11.5671C30.7756 11.5571 30.7586 11.5461 30.7406 11.5381C30.6755 11.5064 30.6088 11.4781 30.5408 11.4532C30.4938 11.4362 30.4468 11.4232 30.3988 11.4092C30.3238 11.3855 30.2473 11.3665 30.17 11.3522C30.0441 11.328 29.9163 11.315 29.7882 11.3132H16.2375C15.915 11.3153 15.5968 11.3876 15.305 11.5251C15.2227 11.5639 15.1426 11.6073 15.0651 11.6551C15.0292 11.678 14.9942 11.7 14.9592 11.725C14.9412 11.737 14.9252 11.754 14.9082 11.767C14.7333 11.8982 14.579 12.0549 14.4505 12.2317C14.4415 12.2447 14.4285 12.2557 14.4195 12.2697C14.3218 12.4134 14.2419 12.5685 14.1816 12.7315C14.1626 12.7824 14.1496 12.8314 14.1336 12.8874C14.0687 13.0938 14.035 13.3087 14.0337 13.525C14.0337 13.8142 14.0907 14.1005 14.2016 14.3676C14.3124 14.6347 14.4748 14.8774 14.6795 15.0816C14.8842 15.2859 15.1272 15.4477 15.3945 15.5579C15.6619 15.6681 15.9483 15.7245 16.2375 15.7238H29.7842C30.0741 15.7257 30.3615 15.6702 30.6299 15.5605C30.8983 15.4508 31.1423 15.2892 31.348 15.0848C31.5537 14.8804 31.7169 14.6374 31.8283 14.3697C31.9396 14.1021 31.997 13.815 31.997 13.525C31.997 13.4861 31.987 13.4491 31.985 13.4091C31.981 13.3342 31.974 13.2632 31.962 13.1932Z" fill="url(#paint4_linear_113_2191)" style="mix-blend-mode:multiply"/>
<path d="M12.3906 13.1943C12.3906 13.1793 12.3906 13.1653 12.3906 13.1513C12.39 13.1369 12.3883 13.1225 12.3856 13.1083C12.3487 12.9186 12.2861 12.7346 12.1997 12.5616C12.1827 12.5257 12.1617 12.4917 12.1428 12.4567C12.1238 12.4217 12.1068 12.3847 12.0858 12.3507C12.0192 12.2478 11.9447 12.1502 11.8629 12.0589C11.8339 12.0269 11.8119 11.9909 11.782 11.9589C11.4936 11.6731 11.1324 11.4719 10.7375 11.3773L10.7205 11.3723C10.4222 11.2944 10.1099 11.2865 9.80802 11.3493C9.75005 11.3603 9.69608 11.3793 9.64011 11.3953C9.56046 11.4146 9.48203 11.4386 9.40524 11.4672C9.36626 11.4832 9.32928 11.5012 9.2913 11.5192L9.26531 11.5342C9.1535 11.5863 9.04649 11.6482 8.9455 11.7191C8.86169 11.7779 8.78251 11.8431 8.70862 11.914C8.49897 12.1101 8.32927 12.345 8.20889 12.6056C8.17227 12.6908 8.14121 12.7783 8.11594 12.8675C8.10295 12.9095 8.08696 12.9504 8.07696 12.9934C8.06697 13.0364 8.05497 13.0723 8.04797 13.1133C8.047 13.1263 8.047 13.1393 8.04797 13.1523C8.04797 13.1653 8.04797 13.1783 8.04797 13.1913C8.0034 13.4909 8.02108 13.7966 8.09993 14.0891C8.17878 14.3816 8.3171 14.6547 8.50623 14.8914C8.69537 15.128 8.93127 15.3232 9.1992 15.4646C9.46713 15.606 9.76134 15.6906 10.0635 15.7132C10.3656 15.7358 10.6691 15.6959 10.9551 15.5959C11.2411 15.4959 11.5033 15.3381 11.7256 15.1322C11.9478 14.9263 12.1252 14.6767 12.2467 14.3992C12.3682 14.1217 12.4311 13.8221 12.4316 13.5191C12.4316 13.4741 12.4206 13.4322 12.4186 13.3872C12.4066 13.3232 12.3996 13.2583 12.3906 13.1943Z" fill="url(#paint5_linear_113_2191)" style="mix-blend-mode:multiply"/>
<path d="M11.7729 18.7352C11.5433 18.51 11.2674 18.3374 10.9644 18.2295C10.9032 18.2068 10.8408 18.1874 10.7775 18.1716C10.7175 18.1556 10.6585 18.1386 10.5956 18.1276C10.4703 18.1038 10.3432 18.0911 10.2158 18.0896C10.0259 18.092 9.83711 18.1189 9.65409 18.1696C9.5844 18.1869 9.51567 18.2079 9.44819 18.2325C9.05071 18.3786 8.70372 18.636 8.44873 18.9741C8.44074 18.9851 8.43075 18.9951 8.42175 19.0071C8.22103 19.2854 8.08915 19.6074 8.03695 19.9466V19.9636C7.99041 20.2642 8.00657 20.5711 8.0844 20.8652C8.16222 21.1592 8.30004 21.4339 8.48919 21.6721C8.67834 21.9103 8.91473 22.1068 9.18349 22.2492C9.45225 22.3916 9.74757 22.4769 10.0509 22.4996C10.3542 22.5224 10.6589 22.4821 10.9459 22.3814C11.2329 22.2807 11.496 22.1217 11.7185 21.9144C11.9411 21.7071 12.1184 21.456 12.2392 21.1768C12.36 20.8977 12.4218 20.5966 12.4206 20.2924C12.4026 19.7118 12.1725 19.1578 11.7739 18.7352H11.7729Z" fill="url(#paint6_linear_113_2191)" style="mix-blend-mode:multiply"/>
<path d="M11.773 25.5026C11.5434 25.277 11.2675 25.1041 10.9644 24.9959C10.9034 24.9739 10.8405 24.9549 10.7775 24.9379C10.7145 24.9209 10.6586 24.9059 10.5956 24.8949C10.4704 24.8708 10.3433 24.8577 10.2158 24.856C10.0266 24.8584 9.83846 24.8853 9.65611 24.9359C9.56839 24.9581 9.48197 24.9851 9.39725 25.0169C9.29714 25.0582 9.20025 25.107 9.1074 25.1628C9.08641 25.1758 9.06344 25.1858 9.04245 25.1988C8.84527 25.3238 8.66918 25.4793 8.52073 25.6595C8.47875 25.7105 8.43277 25.7595 8.39479 25.8114C8.3768 25.8374 8.36282 25.8664 8.34483 25.8934C8.29274 25.9759 8.24599 26.0617 8.20489 26.1502C8.15941 26.2542 8.12198 26.3614 8.09295 26.4711C8.08695 26.4941 8.07797 26.515 8.07297 26.537C8.06298 26.577 8.05098 26.615 8.04398 26.656C8.03698 26.697 8.04398 26.7089 8.03599 26.7359C8.01684 26.8429 8.00581 26.9511 8.003 27.0597C7.99675 27.3537 8.04925 27.646 8.15741 27.9194C8.26558 28.1928 8.42725 28.4418 8.63293 28.6519C8.8386 28.862 9.08415 29.0289 9.35519 29.1429C9.62623 29.2568 9.91729 29.3155 10.2113 29.3155C10.5053 29.3155 10.7964 29.2568 11.0674 29.1429C11.3385 29.0289 11.584 28.862 11.7897 28.6519C11.9954 28.4418 12.157 28.1928 12.2652 27.9194C12.3734 27.646 12.4259 27.3537 12.4196 27.0597V27.0597C12.4182 26.5882 12.2639 26.1299 11.9799 25.7535C11.917 25.665 11.8479 25.5812 11.773 25.5026V25.5026Z" fill="url(#paint7_linear_113_2191)" style="mix-blend-mode:multiply"/>
<path d="M31.962 19.9636C31.961 19.9496 31.961 19.9356 31.962 19.9216C31.9613 19.9075 31.9596 19.8935 31.957 19.8796C31.9016 19.612 31.8001 19.356 31.6571 19.123C31.6271 19.0751 31.5952 19.0291 31.5572 18.9841C31.5382 18.9591 31.5172 18.9361 31.4972 18.9122C31.4047 18.798 31.3009 18.6936 31.1874 18.6003C31.1394 18.5614 31.0954 18.5184 31.0445 18.4834C30.976 18.4394 30.9053 18.399 30.8326 18.3625C30.7846 18.3375 30.7396 18.3085 30.6906 18.2865C30.5905 18.2436 30.4872 18.2082 30.3818 18.1806C30.3498 18.1716 30.3198 18.1596 30.2819 18.1516C30.1182 18.1119 29.9505 18.091 29.7821 18.0896H16.2375C16.0482 18.0921 15.8601 18.1189 15.6778 18.1696C15.6101 18.187 15.5434 18.208 15.4779 18.2325C15.4209 18.2535 15.3639 18.2755 15.309 18.3005C15.254 18.3255 15.1911 18.3625 15.1341 18.4004C14.9263 18.5213 14.7396 18.6752 14.5814 18.8562C14.5246 18.9172 14.4715 18.9817 14.4225 19.0491C14.4035 19.0751 14.3895 19.104 14.3725 19.132C14.3555 19.16 14.3515 19.172 14.3405 19.191C14.2607 19.3273 14.1967 19.4721 14.1496 19.6228C14.1336 19.6737 14.1156 19.7227 14.1026 19.7747C14.0211 20.0994 14.0147 20.4385 14.0841 20.766C14.1535 21.0935 14.2967 21.4009 14.5029 21.6647C14.7091 21.9285 14.9729 22.1416 15.274 22.288C15.5751 22.4344 15.9057 22.51 16.2405 22.5092H29.7871C30.3736 22.5084 30.9358 22.2752 31.3506 21.8606C31.7654 21.446 31.9989 20.8839 31.9999 20.2974C31.9999 20.2504 31.9889 20.2075 31.9859 20.1615C31.9789 20.0915 31.973 20.0275 31.962 19.9636Z" fill="url(#paint8_linear_113_2191)" style="mix-blend-mode:multiply"/>
<path d="M31.962 26.7308C31.962 26.7018 31.962 26.6728 31.953 26.6448C31.9303 26.5346 31.8989 26.4263 31.859 26.321C31.851 26.2981 31.847 26.2741 31.838 26.2521C31.817 26.1991 31.7921 26.1521 31.7671 26.0991L31.7561 26.0782C31.6991 25.9629 31.6323 25.8529 31.5562 25.7493C31.5482 25.7383 31.5392 25.7293 31.5312 25.7183C31.4627 25.6279 31.3875 25.5427 31.3063 25.4635C31.2238 25.3841 31.1353 25.3113 31.0415 25.2456C30.9975 25.2146 30.9485 25.1916 30.9025 25.1636C30.833 25.1213 30.7613 25.0826 30.6877 25.0477C30.5682 24.995 30.444 24.9535 30.3169 24.9238C30.3059 24.9238 30.2959 24.9158 30.2859 24.9138C30.1223 24.8737 29.9546 24.8525 29.7861 24.8508H16.2375C16.0482 24.8531 15.86 24.8803 15.6778 24.9318C15.6088 24.9498 15.5409 24.9698 15.4779 24.9938C15.4149 25.0177 15.3639 25.0367 15.309 25.0627C15.2489 25.0928 15.1905 25.1262 15.1341 25.1626C14.9261 25.2828 14.7394 25.4365 14.5814 25.6174C14.5248 25.6787 14.4718 25.7431 14.4225 25.8103C14.4035 25.8373 14.3895 25.8663 14.3725 25.8943C14.3555 25.9223 14.3515 25.9332 14.3405 25.9532C14.2606 26.0894 14.1965 26.2343 14.1496 26.385C14.1336 26.435 14.1156 26.4849 14.1026 26.5369C14.0211 26.8616 14.0147 27.2007 14.0841 27.5282C14.1535 27.8558 14.2967 28.1631 14.5029 28.4269C14.7091 28.6907 14.9729 28.9039 15.274 29.0502C15.5751 29.1966 15.9057 29.2722 16.2405 29.2714H29.7871C30.0777 29.2717 30.3655 29.2147 30.634 29.1036C30.9025 28.9926 31.1465 28.8297 31.3521 28.6243C31.5576 28.4188 31.7206 28.1749 31.8317 27.9064C31.9429 27.638 32.0001 27.3502 31.9999 27.0596V27.0596C31.9965 26.9819 31.9885 26.9045 31.976 26.8278C31.97 26.7928 31.969 26.7608 31.962 26.7308Z" fill="url(#paint9_linear_113_2191)" style="mix-blend-mode:multiply"/>
</g>
<defs>
<linearGradient id="paint0_linear_113_2191" x1="34.2809" y1="34" x2="5.72093" y2="5.99922" gradientUnits="userSpaceOnUse">
<stop stop-color="#692705"/>
<stop offset="1" stop-color="#823B00"/>
</linearGradient>
<radialGradient id="paint1_radial_113_2191" cx="0" cy="0" r="1" gradientUnits="userSpaceOnUse" gradientTransform="translate(-250.276 21.2142) scale(28.1832 28.1798)">
<stop stop-color="#B0670B"/>
<stop offset="1"/>
</radialGradient>
<radialGradient id="paint2_radial_113_2191" cx="0" cy="0" r="1" gradientUnits="userSpaceOnUse" gradientTransform="translate(5.41147 1.00877) scale(45.0224 45.0224)">
<stop stop-color="#E99C43"/>
<stop offset="1" stop-color="#9A4416"/>
</radialGradient>
<radialGradient id="paint3_radial_113_2191" cx="0" cy="0" r="1" gradientUnits="userSpaceOnUse" gradientTransform="translate(-74.7025 -10.7325) scale(57.3239 57.3377)">
<stop stop-color="#CFA04D"/>
<stop offset="1" stop-color="white"/>
</radialGradient>
<linearGradient id="paint4_linear_113_2191" x1="23.0153" y1="15.7239" x2="23.0153" y2="11.3132" gradientUnits="userSpaceOnUse">
<stop stop-color="#9E6F4F"/>
<stop offset="1" stop-color="#75533B"/>
</linearGradient>
<linearGradient id="paint5_linear_113_2191" x1="10.2278" y1="15.7193" x2="10.2278" y2="11.3074" gradientUnits="userSpaceOnUse">
<stop stop-color="#9E6F4F"/>
<stop offset="1" stop-color="#75533B"/>
</linearGradient>
<linearGradient id="paint6_linear_113_2191" x1="10.2158" y1="22.5058" x2="10.2158" y2="18.0896" gradientUnits="userSpaceOnUse">
<stop stop-color="#9E6F4F"/>
<stop offset="1" stop-color="#75533B"/>
</linearGradient>
<linearGradient id="paint7_linear_113_2191" x1="10.2113" y1="29.3155" x2="10.2113" y2="24.856" gradientUnits="userSpaceOnUse">
<stop stop-color="#9E6F4F"/>
<stop offset="1" stop-color="#75533B"/>
</linearGradient>
<linearGradient id="paint8_linear_113_2191" x1="23.0182" y1="22.5092" x2="23.0182" y2="18.0896" gradientUnits="userSpaceOnUse">
<stop stop-color="#9E6F4F"/>
<stop offset="1" stop-color="#75533B"/>
</linearGradient>
<linearGradient id="paint9_linear_113_2191" x1="23.0182" y1="29.2714" x2="23.0182" y2="24.8508" gradientUnits="userSpaceOnUse">
<stop stop-color="#9E6F4F"/>
<stop offset="1" stop-color="#75533B"/>
</linearGradient>
</defs>
</svg>
