<svg width="40" height="40" viewBox="0 0 40 40" fill="none" xmlns="http://www.w3.org/2000/svg">
<path fill-rule="evenodd" clip-rule="evenodd" d="M19.5745 0.00455187C23.5473 -0.0802077 27.4554 1.02043 30.8001 3.16605C34.1448 5.31167 36.7745 8.40501 38.3538 12.0515C39.9331 15.6979 40.3903 19.7321 39.6671 23.6395C38.944 27.5469 37.0733 31.1503 34.2937 33.9901C31.514 36.8298 27.9514 38.7772 24.0604 39.5837C20.1693 40.3902 16.1262 40.0194 12.4468 38.5184C8.76746 37.0175 5.61859 34.4545 3.40194 31.1565C1.18528 27.8585 0.00131678 23.9748 0.00109903 20.0011C-0.0541656 14.754 1.97678 9.69986 5.64732 5.94996C9.31787 2.20007 14.3275 0.0615062 19.5745 0.00455187V0.00455187Z" fill="url(#paint0_linear_113_2193)"/>
<path style="mix-blend-mode:screen" fill-rule="evenodd" clip-rule="evenodd" d="M1.59174 25.9717C2.75741 29.8365 5.13713 33.223 8.37831 35.6294C11.6195 38.0358 15.5497 39.334 19.5865 39.3316C23.6233 39.3293 27.552 38.0266 30.7904 35.6165C34.0288 33.2064 36.4046 29.8171 37.5658 25.9509C36.1723 29.5929 33.7063 32.7262 30.4939 34.9367C27.2815 37.1472 23.4739 38.3307 19.5744 38.3309C19.2843 38.3309 18.9964 38.324 18.7109 38.3102C14.968 38.1391 11.3561 36.881 8.31701 34.6897C5.27788 32.4984 2.94325 29.4688 1.59864 25.9717H1.59174Z" fill="url(#paint1_radial_113_2193)"/>
<path fill-rule="evenodd" clip-rule="evenodd" d="M19.5745 0.488281C23.2511 0.48794 26.8453 1.57787 29.9025 3.62024C32.9596 5.66261 35.3425 8.56569 36.7497 11.9623C38.1569 15.359 38.5253 19.0967 37.8082 22.7027C37.0912 26.3087 35.3209 29.6211 32.7212 32.221C30.1216 34.8209 26.8094 36.5915 23.2034 37.3089C19.5975 38.0263 15.8597 37.6582 12.463 36.2513C9.06618 34.8444 6.16289 32.4618 4.12023 29.4049C2.07758 26.3479 0.987305 22.7538 0.987305 19.0772C0.987305 14.1474 2.94554 9.41952 6.43126 5.93347C9.91699 2.44741 14.6447 0.488739 19.5745 0.488281V0.488281Z" fill="url(#paint2_radial_113_2193)"/>
<g style="mix-blend-mode:screen" opacity="0.5">
<path fill-rule="evenodd" clip-rule="evenodd" d="M6.78001 6.28103C8.81103 4.22507 11.2817 2.65634 14.0064 1.69279C16.731 0.729244 19.6386 0.395954 22.5106 0.717987C21.5394 0.565109 20.5577 0.488308 19.5745 0.488281C16.8859 0.491514 14.23 1.07725 11.7895 2.20517C9.34904 3.33309 7.18192 4.97642 5.43732 7.02205C3.69272 9.06767 2.41206 11.467 1.6835 14.055C0.954945 16.6429 0.795777 19.358 1.21696 22.0133C0.894789 19.1411 1.22803 16.2332 2.19157 13.5082C3.15512 10.7833 4.72392 8.31231 6.78001 6.28103V6.28103Z" fill="#CA9E67"/>
</g>
<g style="mix-blend-mode:screen" opacity="0.5">
<path fill-rule="evenodd" clip-rule="evenodd" d="M38.1445 18.2358C38.1605 20.7893 37.6695 23.3205 36.6998 25.6827C35.7301 28.0449 34.301 30.191 32.4955 31.9967C30.69 33.8024 28.544 35.2316 26.1819 36.2015C23.8198 37.1714 21.2886 37.6627 18.7352 37.6469C19.0132 37.659 19.293 37.6642 19.5745 37.6642C22.0156 37.6644 24.4328 37.1838 26.6881 36.2498C28.9434 35.3158 30.9926 33.9467 32.7188 32.2207C34.445 30.4947 35.8143 28.4456 36.7485 26.1904C37.6827 23.9351 38.1635 21.518 38.1635 19.0769C38.1635 18.7954 38.1635 18.5139 38.1445 18.2358V18.2358Z" fill="#CA9E67"/>
</g>
<path style="mix-blend-mode:multiply" fill-rule="evenodd" clip-rule="evenodd" d="M16.1151 19.9165C13.255 18.7076 10.3189 17.654 7.52269 16.2896C6.78021 15.9546 6.09808 15.4994 5.5037 14.9425C5.27916 14.7526 5.10424 14.5109 4.9941 14.2383C4.88396 13.9656 4.84189 13.6702 4.87156 13.3777C5.02873 12.5435 5.96657 11.8682 6.65396 11.4779C6.77313 11.4088 6.89576 11.3431 7.01838 11.2792C7.99858 10.7897 9.01901 10.3852 10.0685 10.0703C11.2153 9.71103 12.3828 9.41569 13.5503 9.1359C14.4933 8.91137 15.4502 8.69548 16.3862 8.46923C17.2774 8.2568 18.1704 8.034 19.0495 7.77839C22.9113 6.64022 26.7438 5.4036 30.5538 4.10135C29.1598 3.07845 27.6298 2.2553 26.008 1.65576C25.331 1.87683 24.6591 2.11344 23.989 2.35697C22.2323 3.00154 20.4307 3.51645 18.5987 3.89755C16.9747 4.22703 15.3281 4.43315 13.673 4.51414C11.9306 4.58957 10.1854 4.5717 8.44496 4.46059L8.15135 4.44332C5.92567 6.17877 4.12557 8.39944 2.88823 10.9361C1.6509 13.4727 1.00902 16.2583 1.01148 19.0806C1.01148 19.2119 1.01148 19.3431 1.01148 19.4727L1.22044 19.5262C2.77484 19.9217 4.35862 20.2482 5.94239 20.5435C12.3949 21.7438 18.5607 23.9632 24.8491 25.7784C26.3448 26.2119 27.818 26.7197 29.2757 27.2689C31.1755 27.9839 33.0391 28.7697 34.9061 29.5573C35.1272 29.2384 35.3367 28.9108 35.5348 28.5746L35.2446 28.4468C32.5693 27.2516 29.9752 25.8837 27.2999 24.6903C23.597 23.0409 19.8457 21.5038 16.1134 19.92L16.1151 19.9165Z" fill="url(#paint3_radial_113_2193)"/>
<g style="mix-blend-mode:screen" opacity="0.5">
<path d="M10.8796 19.2614C10.9289 19.2748 10.9773 19.2883 11.0266 19.2999C11.2252 19.3479 11.4267 19.3832 11.6298 19.4057C11.7903 19.4222 11.9516 19.4306 12.1129 19.4308C12.2313 19.4308 12.346 19.4174 12.4625 19.4084C12.6005 19.3985 12.7368 19.3842 12.8712 19.3618C12.9465 19.3492 13.02 19.3358 13.0935 19.3197C13.2995 19.2765 13.5022 19.2193 13.7003 19.1484C13.7308 19.1377 13.7631 19.1305 13.79 19.1189C13.993 19.0402 14.1903 18.9477 14.3806 18.8419C14.4326 18.8132 14.481 18.7792 14.5312 18.7523C14.6678 18.6694 14.8 18.5797 14.9274 18.4834L14.9489 18.4664C14.9722 18.4126 14.9982 18.3588 15.0188 18.3023C15.0394 18.2458 15.0618 18.2127 15.0771 18.1679C15.0968 18.1051 15.1049 18.0379 15.121 17.9734C15.1371 17.9088 15.1551 17.8398 15.1676 17.7708C15.1739 17.7359 15.1864 17.7027 15.1918 17.6668C15.2127 17.5199 15.2232 17.3716 15.2232 17.2232V15.9746C15.2225 16.8 14.8941 17.5914 14.3103 18.175C13.7264 18.7585 12.9348 19.0864 12.1093 19.0866C11.2832 19.0758 10.4945 18.741 9.91287 18.1542C9.33129 17.5674 9.00345 16.7756 9 15.9495V17.2043C9.00575 17.6773 9.1179 18.143 9.32815 18.5667C9.5384 18.9905 9.84134 19.3615 10.2145 19.6522V19.0319C10.4301 19.125 10.6525 19.2017 10.8796 19.2614V19.2614Z" fill="#BC886C"/>
<path d="M17.5035 18.8087C17.6039 18.867 17.7079 18.919 17.8127 18.9701C17.8817 19.0041 17.9508 19.0391 18.0216 19.0687C18.2296 19.158 18.4442 19.2314 18.6633 19.2883C18.7126 19.3008 18.7646 19.3071 18.8148 19.3178C18.9648 19.3522 19.1165 19.3788 19.2693 19.3976C19.4403 19.4182 19.6124 19.4293 19.7846 19.4308C19.9021 19.4308 20.015 19.4173 20.1297 19.4084C20.2624 19.3985 20.3924 19.3851 20.5214 19.3636C20.5949 19.3519 20.6684 19.3367 20.741 19.3214C20.931 19.281 21.1181 19.2283 21.3012 19.1637C21.3416 19.1493 21.3828 19.1395 21.4222 19.1243C21.6231 19.0468 21.8181 18.9548 22.0057 18.8491C22.0514 18.824 22.0954 18.7935 22.1384 18.7657C22.2621 18.6913 22.3813 18.6089 22.4969 18.5228C22.5148 18.4816 22.5346 18.4412 22.5498 18.3982C22.565 18.3552 22.591 18.3149 22.6054 18.2692C22.6242 18.21 22.6323 18.1472 22.6475 18.0899C22.6627 18.0325 22.6798 17.9635 22.6914 17.8981C22.6977 17.864 22.7093 17.8326 22.7147 17.7977C22.7346 17.659 22.7445 17.5191 22.7443 17.3791V16.1269C22.7443 16.9121 22.4324 17.6651 21.8772 18.2204C21.322 18.7756 20.5689 19.0875 19.7838 19.0875C18.9986 19.0875 18.2455 18.7756 17.6903 18.2204C17.1351 17.6651 16.8232 16.9121 16.8232 16.1269V15.4995V17.3764C16.8233 17.7638 16.9001 18.1473 17.0491 18.5049C17.1288 18.5649 17.2095 18.6232 17.2938 18.6779C17.3628 18.7218 17.4318 18.7675 17.5035 18.8087Z" fill="#BC886C"/>
<path d="M27.432 19.0856C26.6134 19.0842 25.8286 18.7585 25.2495 18.1798C24.6705 17.6011 24.3443 16.8165 24.3424 15.9978V15.3704V17.2473C24.3426 17.6647 24.428 18.0777 24.5934 18.4609L24.6023 18.4681C24.692 18.5389 24.7915 18.607 24.8901 18.6706C24.9591 18.7155 25.029 18.7603 25.1007 18.8006C25.2029 18.8598 25.3086 18.9136 25.4162 18.9655C25.4861 18.9987 25.5551 19.0328 25.6268 19.0623C25.8407 19.1542 26.0612 19.2297 26.2865 19.2882C26.317 19.2963 26.3493 19.2989 26.3762 19.3061C26.55 19.3461 26.7259 19.3761 26.9032 19.3958C27.0776 19.4163 27.2529 19.4274 27.4284 19.4289C27.5226 19.4289 27.6149 19.4191 27.7081 19.4137C27.8745 19.4039 28.0403 19.385 28.2047 19.3572C28.245 19.35 28.2853 19.3456 28.3257 19.3375C28.5632 19.2903 28.7966 19.2247 29.0239 19.1412C29.1135 19.1089 29.2032 19.0794 29.2928 19.0417V19.6691C29.3901 19.5956 29.4829 19.5163 29.5707 19.4316C29.5904 19.4128 29.611 19.3958 29.6298 19.3769C29.7502 19.2497 29.8602 19.113 29.9588 18.9682C29.983 18.9315 30.0054 18.8947 30.0278 18.858C30.061 18.8051 30.0977 18.7549 30.1282 18.7002C30.1587 18.6455 30.1685 18.5989 30.1927 18.5505C30.2366 18.4609 30.277 18.3659 30.3128 18.27C30.3281 18.227 30.3523 18.1884 30.3666 18.1445C30.3863 18.0826 30.3944 18.0163 30.4105 17.9527C30.4267 17.889 30.4455 17.8173 30.458 17.7474C30.4634 17.7134 30.476 17.6811 30.4804 17.647C30.501 17.5051 30.5112 17.362 30.5109 17.2186V15.9637C30.5098 16.784 30.1865 17.5709 29.6105 18.1549C29.0346 18.7389 28.2522 19.0732 27.432 19.0856V19.0856Z" fill="#BC886C"/>
<path d="M23.5115 23.9967C23.5118 23.8918 23.4914 23.7878 23.4514 23.6908C23.4114 23.5938 23.3525 23.5057 23.2783 23.4315C23.2041 23.3574 23.1159 23.2986 23.0188 23.2587C22.9218 23.2188 22.8178 23.1985 22.7128 23.199H16.7971C16.6922 23.1985 16.5882 23.2188 16.4911 23.2587C16.3941 23.2986 16.3059 23.3574 16.2317 23.4315C16.1574 23.5057 16.0986 23.5938 16.0586 23.6908C16.0185 23.7878 15.9981 23.8918 15.9985 23.9967V25.2516C15.9995 25.1507 16.0196 25.051 16.0576 24.9576L16.072 24.9235C16.1097 24.8375 16.1625 24.7588 16.2279 24.6914L16.2512 24.6734C16.3111 24.618 16.3791 24.5721 16.4529 24.5372C16.4744 24.5273 16.4959 24.5175 16.5183 24.5094C16.6072 24.4743 16.7016 24.4555 16.7971 24.4538H17.5957V23.5423H21.9115V24.4538H22.7102C22.8151 24.4532 22.9192 24.4735 23.0163 24.5133C23.1134 24.5532 23.2016 24.6119 23.2759 24.6861C23.3501 24.7603 23.409 24.8485 23.4489 24.9455C23.4889 25.0426 23.5093 25.1466 23.5088 25.2516V25.2516L23.5115 23.9967Z" fill="#BC886C"/>
<path d="M21.9143 30.7434H17.5984V32.0001H21.9143V30.7434Z" fill="#BC886C"/>
<path d="M28.989 30.7433H23.5115V31.9982H28.989C29.039 31.9968 29.0879 31.9833 29.1315 31.9588C29.1433 31.952 29.1543 31.9442 29.1647 31.9354C29.1943 31.9143 29.2199 31.8879 29.2399 31.8575C29.2453 31.8503 29.2534 31.8467 29.2579 31.8386C29.2612 31.8316 29.2642 31.8244 29.2668 31.8171L29.2731 31.8037L29.2812 31.7849C29.2864 31.7688 29.2903 31.7523 29.2928 31.7355C29.2937 31.7209 29.2937 31.7063 29.2928 31.6916V30.4368C29.2928 30.5176 29.2609 30.5952 29.204 30.6526C29.1471 30.71 29.0698 30.7426 28.989 30.7433V30.7433Z" fill="#BC886C"/>
<path d="M10.2172 30.4368V31.6916C10.2191 31.7738 10.2531 31.8518 10.3119 31.9092C10.3707 31.9665 10.4497 31.9984 10.5318 31.9982H15.9994V30.7433H10.5318C10.4497 30.7436 10.3707 30.7116 10.3119 30.6543C10.2531 30.597 10.2191 30.5189 10.2172 30.4368V30.4368Z" fill="#BC886C"/>
</g>
<path d="M17.5984 23.5425V24.7973H21.9143V23.5425H17.5984Z" fill="#4F2806"/>
<path d="M29.031 19.1432C28.8038 19.2266 28.5703 19.2923 28.3328 19.3395C28.2925 19.3475 28.2521 19.352 28.2118 19.3592C28.0474 19.387 27.8817 19.4058 27.7152 19.4156C27.6256 19.421 27.5297 19.4309 27.4356 19.4309C27.26 19.4294 27.0847 19.4183 26.9103 19.3977C26.7331 19.378 26.5571 19.3481 26.3833 19.3081C26.3528 19.3009 26.3206 19.2982 26.2937 19.2902C26.0684 19.2316 25.8479 19.1561 25.634 19.0643C25.5623 19.0347 25.4932 19.0006 25.4233 18.9675C25.3158 18.9155 25.21 18.8617 25.1078 18.8026C25.0361 18.7613 24.9662 18.7129 24.8972 18.6726C24.7986 18.6089 24.7027 18.5408 24.6095 18.47L24.6005 18.4629C24.5405 18.4172 24.4804 18.3732 24.4212 18.3212C24.3128 18.2316 24.2097 18.1321 24.1093 18.0308C24.0636 17.9842 24.0152 17.9412 23.9713 17.8919C23.8313 17.7397 23.7014 17.5786 23.5823 17.4097C23.4615 17.5856 23.3289 17.753 23.1852 17.9107C23.1413 17.9591 23.0956 18.0048 23.0481 18.0514C22.9422 18.16 22.8309 18.2632 22.7146 18.3607C22.6609 18.4064 22.6062 18.4503 22.5497 18.4942C22.5354 18.505 22.5192 18.514 22.504 18.5256C22.3875 18.6152 22.2683 18.6941 22.1455 18.7685C22.1007 18.7963 22.0558 18.8268 22.0128 18.8519C21.8252 18.9576 21.6302 19.0495 21.4293 19.127C21.3899 19.1423 21.3486 19.1521 21.3083 19.1665C21.1252 19.2311 20.938 19.2838 20.7481 19.3242C20.6755 19.3395 20.602 19.3547 20.5285 19.3664C20.3994 19.3879 20.2695 19.4013 20.1368 19.4112C20.0221 19.4201 19.9091 19.4336 19.7917 19.4336C19.6195 19.4321 19.4474 19.421 19.2763 19.4004C19.1236 19.3816 18.9719 19.355 18.8219 19.3206C18.7717 19.3099 18.7197 19.3036 18.6704 19.2911C18.4512 19.2342 18.2367 19.1608 18.0286 19.0715C17.9578 19.0419 17.8888 19.0069 17.8198 18.9729C17.7149 18.9218 17.611 18.8698 17.5106 18.8115C17.4389 18.7703 17.3699 18.7219 17.3017 18.6798C17.2175 18.6251 17.1368 18.5668 17.057 18.5068C17.0463 18.4987 17.0337 18.4915 17.023 18.4826C16.9602 18.4351 16.8993 18.3849 16.8392 18.3338C16.7344 18.2442 16.634 18.1491 16.5381 18.0505C16.4888 18.0003 16.4377 17.9511 16.3911 17.8991C16.2805 17.7748 16.1767 17.6446 16.08 17.5092C16.0523 17.4697 16.0191 17.4339 15.9904 17.3936C15.8671 17.5706 15.7318 17.7389 15.5853 17.8973C15.5396 17.9475 15.4956 17.9923 15.4436 18.0398C15.3367 18.1485 15.2246 18.2516 15.1075 18.349C15.0582 18.3894 15.008 18.4297 14.9578 18.4682L14.9363 18.4853C14.8089 18.5816 14.6767 18.6713 14.5402 18.7542C14.49 18.7846 14.4416 18.8187 14.3896 18.8438C14.1993 18.9496 14.0019 19.0421 13.7989 19.1207C13.7684 19.1324 13.7361 19.1396 13.7093 19.1503C13.5111 19.2212 13.3084 19.2784 13.1024 19.3216C13.0289 19.3377 12.9554 19.3511 12.8802 19.3637C12.7457 19.3861 12.6113 19.4004 12.4714 19.4103C12.3549 19.4192 12.2402 19.4327 12.1219 19.4327C11.9605 19.4324 11.7993 19.4241 11.6387 19.4076C11.4356 19.3851 11.2342 19.3498 11.0355 19.3018C10.9862 19.2902 10.9378 19.2767 10.8885 19.2633C10.6624 19.2046 10.441 19.1291 10.2261 19.0374V20.2923C10.441 20.3839 10.6624 20.4595 10.8885 20.5181V20.5181C10.9378 20.5316 10.9862 20.545 11.0355 20.5567C11.2342 20.6046 11.4356 20.6399 11.6387 20.6624C11.7993 20.6789 11.9605 20.6873 12.1219 20.6875C12.2402 20.6875 12.3549 20.6741 12.4714 20.6651C12.6095 20.6553 12.7457 20.64 12.8802 20.6185C12.9545 20.606 13.0281 20.5916 13.1016 20.5764C13.3071 20.5331 13.5095 20.4762 13.7075 20.4061C13.7379 20.3944 13.7711 20.3873 13.8016 20.3756C14.0046 20.297 14.202 20.2044 14.3923 20.0986C14.4434 20.07 14.4918 20.0359 14.5428 20.009C14.6799 19.9265 14.8124 19.8367 14.9399 19.7401C14.9982 19.6971 15.0537 19.6505 15.1102 19.6048C15.2297 19.5068 15.3421 19.4037 15.4472 19.2955L15.4822 19.2606C15.5171 19.2247 15.5539 19.1907 15.5871 19.1539C15.7331 18.9955 15.8685 18.8275 15.9922 18.6511V18.6511C16.0191 18.6914 16.0523 18.7282 16.0818 18.7676C16.1782 18.9027 16.2817 19.0326 16.392 19.1566C16.4386 19.2086 16.4897 19.2579 16.539 19.3081C16.6349 19.4067 16.7352 19.5017 16.8401 19.5913C16.9002 19.6424 16.9611 19.6917 17.0194 19.7401C17.109 19.8091 17.2031 19.8746 17.299 19.9373C17.3681 19.9821 17.4362 20.0269 17.5079 20.0691C17.6083 20.1273 17.7123 20.1793 17.8171 20.2304C17.8861 20.2645 17.9552 20.2994 18.026 20.329C18.2343 20.4184 18.4492 20.4918 18.6686 20.5486C18.717 20.5612 18.7681 20.5674 18.8174 20.5782C18.9683 20.6126 19.1209 20.6392 19.2745 20.658C19.4453 20.6786 19.6171 20.6896 19.789 20.6911C19.9065 20.6911 20.0194 20.6777 20.135 20.6687C20.2668 20.6589 20.3967 20.6454 20.5258 20.6239C20.5993 20.6122 20.6728 20.597 20.7454 20.5818C20.9354 20.5413 21.1225 20.4886 21.3056 20.424C21.346 20.4097 21.3872 20.3998 21.4275 20.3846C21.6281 20.3069 21.8228 20.215 22.0101 20.1094C22.0558 20.0843 22.0998 20.0538 22.1428 20.026C22.2827 19.9421 22.418 19.8505 22.5479 19.7518C22.6044 19.7087 22.6591 19.6621 22.7128 19.6182C22.8291 19.5208 22.9404 19.4176 23.0463 19.309C23.092 19.2624 23.1359 19.2194 23.1834 19.1683C23.3271 19.0105 23.4598 18.8431 23.5805 18.6672C23.6998 18.836 23.8298 18.9971 23.9695 19.1494C24.0134 19.1978 24.0591 19.2391 24.1075 19.2875C24.2079 19.3896 24.311 19.4874 24.4195 19.5797C24.4804 19.6308 24.5431 19.6792 24.6059 19.7267C24.6955 19.7984 24.795 19.8656 24.8945 19.9301C24.9635 19.975 25.0334 20.0198 25.1051 20.0601C25.2073 20.1193 25.3131 20.1731 25.4207 20.225C25.4897 20.2582 25.5596 20.2923 25.6313 20.3218C25.8452 20.4137 26.0657 20.4892 26.291 20.5477V20.5477C26.3215 20.5558 26.3537 20.5585 26.3806 20.5656C26.5541 20.6056 26.7298 20.6355 26.9067 20.6553V20.6553C27.0808 20.6759 27.2558 20.6869 27.4311 20.6884C27.5252 20.6884 27.6175 20.6786 27.7117 20.6732C27.8778 20.6634 28.0432 20.6445 28.2073 20.6167V20.6167C28.2477 20.6095 28.288 20.6051 28.3283 20.597C28.5658 20.5498 28.7993 20.4842 29.0266 20.4007C29.1162 20.3684 29.2058 20.3389 29.2955 20.3012V19.0464C29.2103 19.0813 29.1207 19.1109 29.031 19.1432Z" fill="#4F2806"/>
<path d="M30.5136 14.6669C30.5107 14.5203 30.4972 14.3742 30.4733 14.2295C30.4598 14.1525 30.4446 14.0745 30.4249 13.9965L28.9728 8.24029L28.9648 8.2125C28.9563 8.1873 28.9442 8.16344 28.9289 8.14168C28.912 8.11746 28.8918 8.09575 28.8689 8.07715H28.8644H28.859C28.8397 8.0618 28.8187 8.04885 28.7962 8.03861C28.7803 8.0316 28.7638 8.02589 28.747 8.02157C28.7328 8.01831 28.7184 8.01592 28.7039 8.0144H28.6743H24.3424V9.26925H28.6725C28.7412 9.26973 28.8077 9.29295 28.8617 9.33529C28.9157 9.37762 28.9542 9.43669 28.971 9.50321L30.4231 15.2594C30.4814 15.494 30.5115 15.7347 30.5127 15.9765V14.6795L30.5136 14.6669Z" fill="#4F2806"/>
<path d="M22.7452 8.00635H16.824V9.25762H22.7452V8.00635Z" fill="#4F2806"/>
<path d="M9.09611 15.2127L10.5302 9.48881C10.5482 9.42287 10.5869 9.36448 10.6407 9.32233C10.6945 9.28018 10.7604 9.25651 10.8287 9.25485H15.2207V8H10.8126C10.7981 8.00016 10.7837 8.00167 10.7695 8.00449C10.7528 8.0079 10.7363 8.01269 10.7203 8.01882C10.7014 8.02878 10.6836 8.04081 10.6674 8.05468C10.653 8.06259 10.6395 8.0719 10.627 8.08247C10.5797 8.12208 10.5446 8.17429 10.5257 8.23305L9.09163 13.957C9.03078 14.2002 9.00066 14.4502 9.002 14.7009V15.9414C9.00339 15.6956 9.03499 15.4509 9.09611 15.2127V15.2127Z" fill="#4F2806"/>
<g style="mix-blend-mode:multiply" opacity="0.75">
<path d="M17.5984 30.1233V30.7435H21.9143V24.7937H17.5984V30.1233Z" fill="url(#paint4_linear_113_2193)" style="mix-blend-mode:multiply"/>
<path d="M29.0311 20.3944C28.8038 20.4779 28.5703 20.5435 28.3328 20.5907C28.2925 20.5988 28.2522 20.6032 28.2118 20.6104C28.0478 20.6382 27.8823 20.6571 27.7162 20.6669C27.6265 20.6722 27.5297 20.6821 27.4356 20.6821C27.2604 20.6806 27.0853 20.6695 26.9113 20.649C26.734 20.6293 26.558 20.5993 26.3842 20.5593C26.3538 20.5521 26.3215 20.5495 26.2946 20.5414C26.069 20.483 25.8481 20.4075 25.634 20.3155C25.5623 20.2859 25.4924 20.2519 25.4234 20.2187C25.1355 20.0808 24.8625 19.9138 24.6086 19.7203C24.5459 19.6728 24.4831 19.6244 24.4222 19.5734C24.104 19.307 23.822 19.0002 23.5832 18.6609C23.4625 18.8368 23.3298 19.0042 23.1861 19.162C23.1422 19.2104 23.0965 19.2516 23.049 19.3027C22.9431 19.4112 22.8318 19.5144 22.7156 19.6119C22.6618 19.6576 22.6071 19.7015 22.5506 19.7455C22.209 20.0084 21.8318 20.2215 21.4302 20.3783C21.3899 20.3935 21.3487 20.4034 21.3083 20.4177C21.1252 20.4823 20.9381 20.535 20.7481 20.5755C20.6755 20.5907 20.602 20.6059 20.5285 20.6176C20.3995 20.6391 20.2695 20.6525 20.1377 20.6624C20.0221 20.6713 19.9092 20.6848 19.7918 20.6848C19.6198 20.6833 19.448 20.6722 19.2773 20.6516C19.1236 20.6329 18.971 20.6063 18.8201 20.5719C18.7708 20.5611 18.7198 20.5548 18.6714 20.5423C18.4519 20.4853 18.2371 20.4119 18.0287 20.3227C17.9579 20.2931 17.8889 20.2582 17.8198 20.2241C17.5379 20.0883 17.2706 19.924 17.0221 19.7338C16.9603 19.6854 16.8993 19.6361 16.8429 19.585C16.738 19.4954 16.6376 19.4004 16.5417 19.3018C16.4924 19.2516 16.4413 19.2023 16.3947 19.1503C16.2842 19.0265 16.1806 18.8966 16.0846 18.7613C16.0559 18.7219 16.0227 18.6851 15.9949 18.6448C15.8712 18.8212 15.7359 18.9892 15.5898 19.1476C15.5566 19.1844 15.5199 19.2184 15.4849 19.2543C15.2048 19.542 14.8891 19.7929 14.5456 20.0009C14.4945 20.0314 14.4461 20.0654 14.395 20.0905C14.2046 20.1961 14.0073 20.2887 13.8043 20.3675C13.7738 20.3792 13.7407 20.3863 13.7102 20.398C13.5122 20.4681 13.3098 20.525 13.1043 20.5683C13.0308 20.5835 12.9573 20.5979 12.8829 20.6104C12.7475 20.6319 12.614 20.6472 12.4733 20.657C12.3567 20.666 12.242 20.6794 12.1237 20.6794C11.9623 20.6792 11.8011 20.6708 11.6406 20.6543C11.4375 20.6318 11.236 20.5965 11.0373 20.5486C10.9881 20.5369 10.9396 20.5235 10.8903 20.51C10.6643 20.4512 10.4429 20.3757 10.228 20.2841V30.4341C10.2298 30.5162 10.2639 30.5943 10.3227 30.6516C10.3815 30.709 10.4605 30.7409 10.5426 30.7407H16.0102V23.9967C16.0098 23.8918 16.0302 23.7878 16.0702 23.6908C16.1103 23.5938 16.1691 23.5057 16.2433 23.4315C16.3176 23.3574 16.4058 23.2986 16.5028 23.2587C16.5999 23.2188 16.7039 23.1985 16.8088 23.199H22.7245C22.8295 23.1985 22.9335 23.2188 23.0305 23.2587C23.1276 23.2986 23.2157 23.3574 23.29 23.4315C23.3642 23.5057 23.4231 23.5938 23.4631 23.6908C23.5031 23.7878 23.5235 23.8918 23.5232 23.9967V25.2516V30.7434H29.0006C29.0819 30.7434 29.1599 30.7111 29.2174 30.6536C29.2749 30.5961 29.3072 30.5181 29.3072 30.4368V20.2949C29.2104 20.3326 29.1207 20.3621 29.0311 20.3944Z" fill="url(#paint5_linear_113_2193)" style="mix-blend-mode:multiply"/>
<path d="M10.5319 9.49153L9.09775 15.2154C9.03778 15.4552 9.00768 15.7015 9.00812 15.9487C9.01158 16.7748 9.33941 17.5666 9.921 18.1533C10.5026 18.7401 11.2914 19.075 12.1175 19.0858C12.9429 19.0856 13.7345 18.7576 14.3184 18.1741C14.9022 17.5906 15.2306 16.7992 15.2313 15.9737V9.25757H10.8393C10.7695 9.25729 10.7015 9.28007 10.6459 9.32237C10.5903 9.36467 10.5502 9.42413 10.5319 9.49153Z" fill="url(#paint6_linear_113_2193)" style="mix-blend-mode:multiply"/>
<path d="M30.4249 15.2477L28.9728 9.49152C28.956 9.425 28.9175 9.36593 28.8635 9.3236C28.8095 9.28127 28.743 9.25804 28.6743 9.25757H24.3424V15.3696V15.997C24.3443 16.8157 24.6705 17.6003 25.2495 18.179C25.8286 18.7577 26.6134 19.0835 27.432 19.0849C28.2517 19.0731 29.034 18.7399 29.6104 18.157C30.1867 17.5741 30.5111 16.7881 30.5136 15.9684V15.963C30.5125 15.7219 30.4827 15.4818 30.4249 15.2477V15.2477Z" fill="url(#paint7_linear_113_2193)" style="mix-blend-mode:multiply"/>
<path d="M19.7846 19.0859C20.5683 19.0833 21.3191 18.7708 21.8733 18.2167C22.4274 17.6625 22.7399 16.9117 22.7425 16.128V9.25854H16.8214V15.4997V16.1271C16.8212 16.516 16.8978 16.9012 17.0468 17.2605C17.1957 17.6199 17.414 17.9463 17.6893 18.2211C17.9645 18.4959 18.2913 18.7138 18.6508 18.8622C19.0104 19.0106 19.3956 19.0866 19.7846 19.0859V19.0859Z" fill="url(#paint8_linear_113_2193)" style="mix-blend-mode:multiply"/>
</g>
<defs>
<linearGradient id="paint0_linear_113_2193" x1="34.2809" y1="34" x2="5.72093" y2="5.99922" gradientUnits="userSpaceOnUse">
<stop stop-color="#692705"/>
<stop offset="1" stop-color="#823B00"/>
</linearGradient>
<radialGradient id="paint1_radial_113_2193" cx="0" cy="0" r="1" gradientUnits="userSpaceOnUse" gradientTransform="translate(-250.276 21.2142) scale(28.1832 28.1798)">
<stop stop-color="#B0670B"/>
<stop offset="1"/>
</radialGradient>
<radialGradient id="paint2_radial_113_2193" cx="0" cy="0" r="1" gradientUnits="userSpaceOnUse" gradientTransform="translate(5.41147 1.00877) scale(45.0224 45.0224)">
<stop stop-color="#E99C43"/>
<stop offset="1" stop-color="#9A4416"/>
</radialGradient>
<radialGradient id="paint3_radial_113_2193" cx="0" cy="0" r="1" gradientUnits="userSpaceOnUse" gradientTransform="translate(-74.7025 -10.7325) scale(57.3239 57.3377)">
<stop stop-color="#CFA04D"/>
<stop offset="1" stop-color="white"/>
</radialGradient>
<linearGradient id="paint4_linear_113_2193" x1="19.7564" y1="30.7435" x2="19.7564" y2="24.7937" gradientUnits="userSpaceOnUse">
<stop stop-color="#9E6F4F"/>
<stop offset="1" stop-color="#75533B"/>
</linearGradient>
<linearGradient id="paint5_linear_113_2193" x1="19.7676" y1="30.7434" x2="19.7676" y2="18.6448" gradientUnits="userSpaceOnUse">
<stop stop-color="#9E6F4F"/>
<stop offset="1" stop-color="#75533B"/>
</linearGradient>
<linearGradient id="paint6_linear_113_2193" x1="12.1197" y1="19.0858" x2="12.1197" y2="9.25757" gradientUnits="userSpaceOnUse">
<stop stop-color="#9E6F4F"/>
<stop offset="1" stop-color="#75533B"/>
</linearGradient>
<linearGradient id="paint7_linear_113_2193" x1="27.428" y1="19.0849" x2="27.428" y2="9.25757" gradientUnits="userSpaceOnUse">
<stop stop-color="#9E6F4F"/>
<stop offset="1" stop-color="#75533B"/>
</linearGradient>
<linearGradient id="paint8_linear_113_2193" x1="19.7819" y1="19.0859" x2="19.7819" y2="9.25854" gradientUnits="userSpaceOnUse">
<stop stop-color="#9E6F4F"/>
<stop offset="1" stop-color="#75533B"/>
</linearGradient>
</defs>
</svg>
