<svg width="951" height="1104" viewBox="0 0 951 1104" fill="none" xmlns="http://www.w3.org/2000/svg">
<path d="M950.024 0H0V1104H950.024V0Z" fill="#7F6147"/>
<path opacity="0.3" d="M933.922 16.1021H16.1021V1062.74H933.922V16.1021Z" fill="black"/>
<path d="M929.896 20.1272H20.1272V1058.71H929.896V20.1272Z" fill="url(#paint0_linear_86_13617)"/>
<path d="M181.219 833.284H179.206V807.168H205.302V809.181H181.219V833.284Z" fill="#754738"/>
<path d="M166.627 833.072H164.614V809.201H140.894V807.188H166.627V833.072Z" fill="#754738"/>
<path d="M166.999 794.981H140.894V792.968H164.986V768.875H166.999V794.981Z" fill="#754738"/>
<path d="M205.302 794.97H179.569V769.086H181.581V792.958H205.302V794.97Z" fill="#754738"/>
<path d="M785.048 833.284H783.035V807.168H809.131V809.181H785.048V833.284Z" fill="#754738"/>
<path d="M770.455 833.072H768.442V809.201H744.721V807.188H770.455V833.072Z" fill="#754738"/>
<path d="M770.827 794.981H744.721V792.968H768.814V768.875H770.827V794.981Z" fill="#754738"/>
<path d="M809.13 794.97H783.396V769.086H785.409V792.958H809.13V794.97Z" fill="#754738"/>
<path d="M181.219 310.972H179.206V284.856H205.302V286.869H181.219V310.972Z" fill="#754738"/>
<path d="M166.627 310.76H164.614V286.889H140.894V284.876H166.627V310.76Z" fill="#754738"/>
<path d="M166.999 272.679H140.894V270.666H164.986V246.563H166.999V272.679Z" fill="#754738"/>
<path d="M205.302 272.659H179.569V246.775H181.581V270.646H205.302V272.659Z" fill="#754738"/>
<path d="M785.048 310.972H783.035V284.856H809.131V286.869H785.048V310.972Z" fill="#754738"/>
<path d="M770.455 310.76H768.442V286.889H744.721V284.876H770.455V310.76Z" fill="#754738"/>
<path d="M770.827 272.679H744.721V270.666H768.814V246.563H770.827V272.679Z" fill="#754738"/>
<path d="M809.13 272.659H783.396V246.775H785.409V270.646H809.13V272.659Z" fill="#754738"/>
<path d="M174.134 179.136H71.4832V76.4849H174.134V179.136ZM73.506 177.123H172.131V78.4976H73.506V177.123V177.123Z" fill="#754738"/>
<path d="M274.772 179.136H172.121V76.4849H274.772V179.136ZM174.134 177.123H272.759V78.4976H174.134V177.123V177.123Z" fill="#754738"/>
<path d="M375.4 179.136H272.75V76.4849H375.4V179.136ZM274.772 177.123H373.398V78.4976H274.772V177.123Z" fill="#754738"/>
<path d="M476.039 179.136H373.388V76.4849H476.039V179.136ZM375.401 177.123H474.026V78.4976H375.401V177.123Z" fill="#754738"/>
<path d="M576.666 179.136H474.015V76.4849H576.666V179.136ZM476.038 177.123H574.664V78.4976H476.038V177.123Z" fill="#754738"/>
<path d="M677.314 179.136H574.664V76.4849H677.314V179.136ZM576.676 177.123H675.302V78.4976H576.676V177.123Z" fill="#754738"/>
<path d="M777.933 179.136H675.292V76.4849H777.933V179.136ZM677.305 177.123H775.92V78.4976H677.305V177.123Z" fill="#754738"/>
<path d="M878.57 179.136H775.919V76.4849H878.57V179.136ZM777.932 177.123H876.558V78.4976H777.932V177.123Z" fill="#754738"/>
<path d="M878.54 279.774H775.889V177.123H878.54V279.774ZM777.902 277.761H876.527V179.136H777.902V277.761Z" fill="#754738"/>
<path d="M777.933 279.774H675.292V177.123H777.933V279.774ZM677.305 277.761H775.92V179.136H677.305V277.761Z" fill="#754738"/>
<path d="M677.264 279.774H574.613V177.123H677.264V279.774ZM576.636 277.761H675.261V179.136H576.636V277.761Z" fill="#754738"/>
<path d="M576.656 279.774H474.015V177.123H576.656V279.774ZM476.028 277.761H574.643V179.136H476.028V277.761Z" fill="#754738"/>
<path d="M476.059 279.774H373.408V177.123H476.059V279.774ZM375.421 277.761H474.046V179.136H375.421V277.761Z" fill="#754738"/>
<path d="M375.38 279.774H272.729V177.123H375.38V279.774ZM274.742 277.761H373.367V179.136H274.742V277.761Z" fill="#754738"/>
<path d="M274.782 279.774H172.131V177.123H274.782V279.774ZM174.144 277.761H272.769V179.136H174.144V277.761V277.761Z" fill="#754738"/>
<path d="M174.104 279.774H71.4529V177.123H174.104V279.774ZM73.4656 277.761H172.091V179.136H73.4656V277.761Z" fill="#754738"/>
<path d="M174.094 380.412H71.4529V277.761H174.094V380.412ZM73.4656 378.399H172.081V279.774H73.4656V378.399Z" fill="#754738"/>
<path d="M274.732 380.412H172.091V277.761H274.742V380.412H274.732ZM174.104 378.399H272.729V279.774H174.104V378.399Z" fill="#754738"/>
<path d="M375.37 380.412H272.719V277.761H375.37V380.412ZM274.732 378.399H373.357V279.774H274.732V378.399Z" fill="#754738"/>
<path d="M475.998 380.412H373.347V277.761H475.998V380.412ZM375.37 378.399H473.995V279.774H375.37V378.399Z" fill="#754738"/>
<path d="M576.636 380.412H473.985V277.761H576.636V380.412ZM475.998 378.399H574.623V279.774H475.998V378.399Z" fill="#754738"/>
<path d="M677.274 380.412H574.623V277.761H677.274V380.412ZM576.646 378.399H675.271V279.774H576.646V378.399Z" fill="#754738"/>
<path d="M777.903 380.412H675.252V277.761H777.903V380.412ZM677.264 378.399H775.89V279.774H677.264V378.399Z" fill="#754738"/>
<path d="M878.53 380.412H775.879V277.761H878.53V380.412ZM777.902 378.399H876.528V279.774H777.902V378.399Z" fill="#754738"/>
<path d="M878.54 481.05H775.889V378.399H878.54V481.05ZM777.902 479.038H876.527V380.412H777.902V479.038Z" fill="#754738"/>
<path d="M777.933 481.05H675.292V378.399H777.933V481.05ZM677.305 479.038H775.92V380.412H677.305V479.038Z" fill="#754738"/>
<path d="M677.264 481.05H574.613V378.399H677.264V481.05ZM576.636 479.038H675.261V380.412H576.636V479.038Z" fill="#754738"/>
<path d="M576.656 481.05H474.015V378.399H576.656V481.05ZM476.028 479.038H574.643V380.412H476.028V479.038Z" fill="#754738"/>
<path d="M476.059 481.05H373.408V378.399H476.059V481.05ZM375.421 479.038H474.046V380.412H375.421V479.038Z" fill="#754738"/>
<path d="M375.38 481.05H272.729V378.399H375.38V481.05ZM274.742 479.038H373.367V380.412H274.742V479.038Z" fill="#754738"/>
<path d="M274.782 481.05H172.131V378.399H274.782V481.05ZM174.144 479.038H272.769V380.412H174.144V479.038V479.038Z" fill="#754738"/>
<path d="M174.104 481.05H71.4529V378.399H174.104V481.05ZM73.4656 479.038H172.091V380.412H73.4656V479.038Z" fill="#754738"/>
<path d="M877.564 479.611H72.4592V600.377H877.564V479.611Z" fill="white"/>
<path d="M878.57 601.383H71.4529V478.605H878.57V601.383ZM73.4656 599.37H876.558V480.617H73.4656V599.37Z" fill="#754738"/>
<path d="M878.54 701.448H775.889V598.797H878.54V701.448ZM777.902 699.435H876.527V600.81H777.902V699.435Z" fill="#754738"/>
<path d="M777.933 701.448H675.292V598.797H777.933V701.448ZM677.305 699.435H775.92V600.81H677.305V699.435Z" fill="#754738"/>
<path d="M677.264 701.448H574.613V598.797H677.264V701.448ZM576.636 699.435H675.261V600.81H576.636V699.435Z" fill="#754738"/>
<path d="M576.656 701.448H474.005V598.797H576.656V701.448ZM476.028 699.435H574.654V600.81H476.028V699.435Z" fill="#754738"/>
<path d="M476.059 701.448H373.408V598.797H476.059V701.448ZM375.431 699.435H474.056V600.81H375.431V699.435Z" fill="#754738"/>
<path d="M375.38 701.448H272.729V598.797H375.38V701.448ZM274.742 699.435H373.367V600.81H274.742V699.435Z" fill="#754738"/>
<path d="M274.742 701.448H172.091V598.797H274.742V701.448ZM174.104 699.435H272.729V600.81H174.104V699.435Z" fill="#754738"/>
<path d="M174.104 701.448H71.4529V598.797H174.104V701.448ZM73.4656 699.435H172.091V600.81H73.4656V699.435Z" fill="#754738"/>
<path d="M174.104 802.086H71.4529V699.435H174.104V802.086ZM73.4656 800.073H172.091V701.448H73.4656V800.073Z" fill="#754738"/>
<path d="M274.732 802.086H172.091V699.435H274.742V802.086H274.732ZM174.104 800.073H272.729V701.448H174.104V800.073Z" fill="#754738"/>
<path d="M375.37 802.086H272.719V699.435H375.37V802.086ZM274.732 800.073H373.357V701.448H274.732V800.073Z" fill="#754738"/>
<path d="M475.998 802.086H373.347V699.435H475.998V802.086ZM375.37 800.073H473.995V701.448H375.37V800.073Z" fill="#754738"/>
<path d="M576.636 802.086H473.985V699.435H576.636V802.086ZM475.998 800.073H574.623V701.448H475.998V800.073Z" fill="#754738"/>
<path d="M677.274 802.086H574.623V699.435H677.274V802.086ZM576.646 800.073H675.271V701.448H576.646V800.073Z" fill="#754738"/>
<path d="M777.903 802.086H675.252V699.435H777.903V802.086ZM677.264 800.073H775.89V701.448H677.264V800.073Z" fill="#754738"/>
<path d="M878.53 802.086H775.889V699.435H878.53V802.086ZM777.902 800.073H876.517V701.448H777.902V800.073Z" fill="#754738"/>
<path d="M878.54 902.723H775.889V800.073H878.54V902.723ZM777.902 900.711H876.527V802.085H777.902V900.711Z" fill="#754738"/>
<path d="M878.54 1003.36H775.889V900.711H878.54V1003.36ZM777.902 1001.35H876.527V902.724H777.902V1001.35Z" fill="#754738"/>
<path d="M777.933 902.723H675.292V800.073H777.933V902.723ZM677.305 900.711H775.92V802.085H677.305V900.711Z" fill="#754738"/>
<path d="M777.933 1003.36H675.292V900.711H777.933V1003.36ZM677.305 1001.35H775.92V902.724H677.305V1001.35Z" fill="#754738"/>
<path d="M677.264 902.723H574.613V800.073H677.264V902.723ZM576.636 900.711H675.261V802.085H576.636V900.711Z" fill="#754738"/>
<path d="M677.264 1003.36H574.613V900.711H677.264V1003.36ZM576.636 1001.35H675.261V902.724H576.636V1001.35Z" fill="#754738"/>
<path d="M576.656 902.723H474.005V800.073H576.656V902.723ZM476.028 900.711H574.654V802.085H476.028V900.711Z" fill="#754738"/>
<path d="M576.656 1003.36H474.015V900.711H576.656V1003.36ZM476.028 1001.35H574.643V902.724H476.028V1001.35Z" fill="#754738"/>
<path d="M476.059 902.723H373.408V800.073H476.059V902.723ZM375.431 900.711H474.056V802.085H375.431V900.711Z" fill="#754738"/>
<path d="M476.059 1003.36H373.408V900.711H476.059V1003.36ZM375.421 1001.35H474.046V902.724H375.421V1001.35Z" fill="#754738"/>
<path d="M375.38 902.723H272.729V800.073H375.38V902.723ZM274.742 900.711H373.367V802.085H274.742V900.711Z" fill="#754738"/>
<path d="M375.38 1003.36H272.729V900.711H375.38V1003.36ZM274.742 1001.35H373.367V902.724H274.742V1001.35Z" fill="#754738"/>
<path d="M274.782 902.723H172.131V800.073H274.782V902.723ZM174.144 900.711H272.769V802.085H174.144V900.711V900.711Z" fill="#754738"/>
<path d="M274.782 1003.36H172.131V900.711H274.782V1003.36ZM174.144 1001.35H272.769V902.724H174.144V1001.35V1001.35Z" fill="#754738"/>
<path d="M174.104 902.723H71.4529V800.073H174.104V902.723ZM73.4656 900.711H172.091V802.085H73.4656V900.711Z" fill="#754738"/>
<path d="M174.104 1003.36H71.4529V900.711H174.104V1003.36ZM73.4656 1001.35H172.091V902.724H73.4656V1001.35Z" fill="#754738"/>
<path d="M375.083 76.7836L373.659 78.2068L574.932 279.479L576.355 278.056L375.083 76.7836Z" fill="#754738"/>
<path d="M575.108 76.7684L373.686 278.048L375.109 279.472L576.53 78.1922L575.108 76.7684Z" fill="#754738"/>
<path d="M483.134 732.646H481.121V706.53H507.216V708.543H483.134V732.646Z" fill="#754738"/>
<path d="M468.541 732.434H466.528V708.563H442.808V706.55H468.541V732.434Z" fill="#754738"/>
<path d="M468.913 694.343H442.808V692.33H466.9V668.237H468.913V694.343Z" fill="#754738"/>
<path d="M507.216 694.332H481.482V668.448H483.495V692.319H507.216V694.332Z" fill="#754738"/>
<path d="M871.093 732.434H869.081V708.563H845.36V706.55H871.093V732.434Z" fill="#754738"/>
<path d="M871.466 694.343H845.36V692.33H869.453V668.237H871.466V694.343Z" fill="#754738"/>
<path d="M281.857 732.646H279.844V706.53H305.94V708.543H281.857V732.646Z" fill="#754738"/>
<path d="M267.265 732.434H265.252V708.563H241.532V706.55H267.265V732.434Z" fill="#754738"/>
<path d="M267.637 694.343H241.532V692.33H265.625V668.237H267.637V694.343Z" fill="#754738"/>
<path d="M305.939 694.332H280.206V668.448H282.219V692.319H305.939V694.332Z" fill="#754738"/>
<path d="M80.5709 732.646H78.5581V706.53H104.664V708.543H80.5709V732.646Z" fill="#754738"/>
<path d="M104.664 694.332H78.9307V668.448H80.9434V692.319H104.664V694.332Z" fill="#754738"/>
<path opacity="0.4" d="M950.024 1079.85H2.50737e-05L0 1104H950.024V1079.85Z" fill="black"/>
<path d="M375.078 800.366L373.654 801.79L574.927 1003.06L576.35 1001.64L375.078 800.366Z" fill="#754738"/>
<path d="M684.41 732.646H682.397V706.53H708.493V708.543H684.41V732.646Z" fill="#754738"/>
<path d="M669.817 732.434H667.804V708.563H644.084V706.55H669.817V732.434Z" fill="#754738"/>
<path d="M670.19 694.343H644.084V692.33H668.177V668.237H670.19V694.343Z" fill="#754738"/>
<path d="M708.491 694.332H682.758V668.448H684.771V692.319H708.491V694.332Z" fill="#754738"/>
<path d="M483.063 411.61H481.05V385.494H507.156V387.507H483.063V411.61Z" fill="#754738"/>
<path d="M468.48 411.399H466.468V387.528H442.747V385.515H468.48V411.399Z" fill="#754738"/>
<path d="M468.843 373.317H442.747V371.304H466.83V347.201H468.843V373.317Z" fill="#754738"/>
<path d="M507.156 373.297H481.413V347.413H483.425V371.284H507.156V373.297Z" fill="#754738"/>
<path d="M871.033 411.399H869.02V387.528H845.3V385.515H871.033V411.399Z" fill="#754738"/>
<path d="M871.395 373.317H845.3V371.304H869.382V347.201H871.395V373.317Z" fill="#754738"/>
<path d="M281.787 411.61H279.774V385.494H305.879V387.507H281.787V411.61Z" fill="#754738"/>
<path d="M267.204 411.399H265.191V387.528H241.471V385.515H267.204V411.399Z" fill="#754738"/>
<path d="M267.566 373.317H241.471V371.304H265.554V347.201H267.566V373.317Z" fill="#754738"/>
<path d="M305.88 373.297H280.136V347.413H282.149V371.284H305.88V373.297Z" fill="#754738"/>
<path d="M80.5103 411.61H78.4976V385.494H104.603V387.507H80.5103V411.61Z" fill="#754738"/>
<path d="M104.603 373.297H78.8601V347.413H80.8729V371.284H104.603V373.297Z" fill="#754738"/>
<path d="M684.339 411.61H682.326V385.494H708.432V387.507H684.339V411.61Z" fill="#754738"/>
<path d="M669.756 411.399H667.744V387.528H644.023V385.515H669.756V411.399Z" fill="#754738"/>
<path d="M670.119 373.317H644.023V371.304H668.106V347.201H670.119V373.317Z" fill="#754738"/>
<path d="M708.432 373.297H682.688V347.413H684.701V371.284H708.432V373.297Z" fill="#754738"/>
<path d="M575.023 800.334L373.687 1001.67L375.11 1003.09L576.447 801.757L575.023 800.334Z" fill="#754738"/>
<defs>
<linearGradient id="paint0_linear_86_13617" x1="475.011" y1="20.1272" x2="475.011" y2="1058.71" gradientUnits="userSpaceOnUse">
<stop stop-color="#FFE8CB"/>
<stop offset="0.536458" stop-color="#FFF8F0"/>
<stop offset="1" stop-color="#FFE8CB"/>
</linearGradient>
</defs>
</svg>
