<svg width="40" height="40" viewBox="0 0 40 40" fill="none" xmlns="http://www.w3.org/2000/svg">
<path fill-rule="evenodd" clip-rule="evenodd" d="M19.5745 0.00455187C23.5473 -0.0802077 27.4554 1.02043 30.8001 3.16605C34.1448 5.31167 36.7745 8.40501 38.3538 12.0515C39.9331 15.6979 40.3903 19.7321 39.6671 23.6395C38.944 27.5469 37.0733 31.1503 34.2937 33.9901C31.514 36.8298 27.9514 38.7772 24.0604 39.5837C20.1693 40.3902 16.1262 40.0194 12.4468 38.5184C8.76746 37.0175 5.61859 34.4545 3.40194 31.1565C1.18528 27.8585 0.00131678 23.9748 0.00109903 20.0011C-0.0541656 14.754 1.97678 9.69986 5.64732 5.94996C9.31787 2.20007 14.3275 0.0615062 19.5745 0.00455187V0.00455187Z" fill="url(#paint0_linear_113_2194)"/>
<path style="mix-blend-mode:screen" fill-rule="evenodd" clip-rule="evenodd" d="M1.59174 25.9717C2.75741 29.8365 5.13713 33.223 8.37831 35.6294C11.6195 38.0358 15.5497 39.334 19.5865 39.3316C23.6233 39.3293 27.552 38.0266 30.7904 35.6165C34.0288 33.2064 36.4046 29.8171 37.5658 25.9509C36.1723 29.5929 33.7063 32.7262 30.4939 34.9367C27.2815 37.1472 23.4739 38.3307 19.5744 38.3309C19.2843 38.3309 18.9964 38.324 18.7109 38.3102C14.968 38.1391 11.3561 36.881 8.31701 34.6897C5.27788 32.4984 2.94325 29.4688 1.59864 25.9717H1.59174Z" fill="url(#paint1_radial_113_2194)"/>
<path fill-rule="evenodd" clip-rule="evenodd" d="M19.5745 0.488281C23.2511 0.48794 26.8453 1.57787 29.9025 3.62024C32.9596 5.66261 35.3425 8.56569 36.7497 11.9623C38.1569 15.359 38.5253 19.0967 37.8082 22.7027C37.0912 26.3087 35.3209 29.6211 32.7212 32.221C30.1216 34.8209 26.8094 36.5915 23.2034 37.3089C19.5975 38.0263 15.8597 37.6582 12.463 36.2513C9.06618 34.8444 6.16289 32.4618 4.12023 29.4049C2.07758 26.3479 0.987305 22.7538 0.987305 19.0772C0.987305 14.1474 2.94554 9.41952 6.43126 5.93347C9.91699 2.44741 14.6447 0.488739 19.5745 0.488281V0.488281Z" fill="url(#paint2_radial_113_2194)"/>
<g style="mix-blend-mode:screen" opacity="0.5">
<path fill-rule="evenodd" clip-rule="evenodd" d="M6.78001 6.28103C8.81103 4.22507 11.2817 2.65634 14.0064 1.69279C16.731 0.729244 19.6386 0.395954 22.5106 0.717987C21.5394 0.565109 20.5577 0.488308 19.5745 0.488281C16.8859 0.491514 14.23 1.07725 11.7895 2.20517C9.34904 3.33309 7.18192 4.97642 5.43732 7.02205C3.69272 9.06767 2.41206 11.467 1.6835 14.055C0.954945 16.6429 0.795777 19.358 1.21696 22.0133C0.894789 19.1411 1.22803 16.2332 2.19157 13.5082C3.15512 10.7833 4.72392 8.31231 6.78001 6.28103V6.28103Z" fill="#CA9E67"/>
</g>
<g style="mix-blend-mode:screen" opacity="0.5">
<path fill-rule="evenodd" clip-rule="evenodd" d="M38.1445 18.2358C38.1605 20.7893 37.6695 23.3205 36.6998 25.6827C35.7301 28.0449 34.301 30.191 32.4955 31.9967C30.69 33.8024 28.544 35.2316 26.1819 36.2015C23.8198 37.1714 21.2886 37.6627 18.7352 37.6469C19.0132 37.659 19.293 37.6642 19.5745 37.6642C22.0156 37.6644 24.4328 37.1838 26.6881 36.2498C28.9434 35.3158 30.9926 33.9467 32.7188 32.2207C34.445 30.4947 35.8143 28.4456 36.7485 26.1904C37.6827 23.9351 38.1635 21.518 38.1635 19.0769C38.1635 18.7954 38.1635 18.5139 38.1445 18.2358V18.2358Z" fill="#CA9E67"/>
</g>
<path style="mix-blend-mode:multiply" fill-rule="evenodd" clip-rule="evenodd" d="M16.1151 19.9165C13.255 18.7076 10.3189 17.654 7.52269 16.2896C6.78021 15.9546 6.09808 15.4994 5.5037 14.9425C5.27916 14.7526 5.10424 14.5109 4.9941 14.2383C4.88396 13.9656 4.84189 13.6702 4.87156 13.3777C5.02873 12.5435 5.96657 11.8682 6.65396 11.4779C6.77313 11.4088 6.89576 11.3431 7.01838 11.2792C7.99858 10.7897 9.01901 10.3852 10.0685 10.0703C11.2153 9.71103 12.3828 9.41569 13.5503 9.1359C14.4933 8.91137 15.4502 8.69548 16.3862 8.46923C17.2774 8.2568 18.1704 8.034 19.0495 7.77839C22.9113 6.64022 26.7438 5.4036 30.5538 4.10135C29.1598 3.07845 27.6298 2.2553 26.008 1.65576C25.331 1.87683 24.6591 2.11344 23.989 2.35697C22.2323 3.00154 20.4307 3.51645 18.5987 3.89755C16.9747 4.22703 15.3281 4.43315 13.673 4.51414C11.9306 4.58957 10.1854 4.5717 8.44496 4.46059L8.15135 4.44332C5.92567 6.17877 4.12557 8.39944 2.88823 10.9361C1.6509 13.4727 1.00902 16.2583 1.01148 19.0806C1.01148 19.2119 1.01148 19.3431 1.01148 19.4727L1.22044 19.5262C2.77484 19.9217 4.35862 20.2482 5.94239 20.5435C12.3949 21.7438 18.5607 23.9632 24.8491 25.7784C26.3448 26.2119 27.818 26.7197 29.2757 27.2689C31.1755 27.9839 33.0391 28.7697 34.9061 29.5573C35.1272 29.2384 35.3367 28.9108 35.5348 28.5746L35.2446 28.4468C32.5693 27.2516 29.9752 25.8837 27.2999 24.6903C23.597 23.0409 19.8457 21.5038 16.1134 19.92L16.1151 19.9165Z" fill="url(#paint3_radial_113_2194)"/>
<path d="M9.03496 26.9294C9.03035 26.9564 9.02904 26.9834 9.02509 27.0104C9.02509 26.9913 9.0343 26.9729 9.0376 26.9538C9.03628 26.9459 9.03694 26.9373 9.03496 26.9294Z" fill="#C2AD9B"/>
<path d="M20.2328 24.4871C20.2328 24.5035 20.223 24.5193 20.2197 24.5358C20.2197 24.5193 20.2295 24.5042 20.2335 24.4884L20.2328 24.4871Z" fill="#C2AD9B"/>
<path d="M30.0491 27.0105C30.0491 26.9934 30.0491 26.9757 30.0445 26.9585C30.0399 26.9414 30.0405 26.9427 30.0386 26.9348C30.0386 26.9407 30.0386 26.9473 30.0386 26.9539C30.0399 26.973 30.0465 26.9895 30.0491 27.0105Z" fill="#C2AD9B"/>
<g style="mix-blend-mode:screen" opacity="0.5">
<path d="M20.1881 23.49C20.1879 23.1481 20.2872 22.8136 20.4739 22.5272C20.5382 22.4278 20.6125 22.3353 20.6958 22.2513L24.3112 18.6497C24.3974 18.5638 24.4923 18.4872 24.5944 18.4212C24.628 18.3994 24.6648 18.3863 24.6997 18.3672C24.767 18.3271 24.8369 18.2919 24.9092 18.2618L24.9217 18.2552C25.0178 18.2186 25.117 18.1906 25.218 18.1716H25.2272C25.3116 18.1557 25.397 18.146 25.4828 18.1426C25.5073 18.1426 25.5317 18.1426 25.5559 18.1426C25.6164 18.1426 25.6777 18.1459 25.7383 18.1518C25.7705 18.1551 25.8041 18.1637 25.8351 18.1689C25.866 18.1742 25.9009 18.1788 25.9319 18.1854C25.9523 18.19 25.974 18.1913 25.9977 18.1966C26.0037 18.1966 26.0096 18.2012 26.0155 18.2025L29.9009 14.3303C29.9351 14.2941 29.9653 14.2543 29.9912 14.2117C30.0026 14.1904 30.013 14.1684 30.0221 14.1459C30.0261 14.1367 30.0307 14.1288 30.034 14.1196C30.0379 14.1123 30.0414 14.1048 30.0445 14.0971C30.0566 14.0624 30.0656 14.0267 30.0715 13.9905C30.0762 13.9584 30.0787 13.9261 30.0787 13.8937V12.2908C30.0783 12.4544 30.0146 12.6116 29.9009 12.7294L19.5466 23.0474L15.3622 18.8835V19.2437L18.385 22.2552C18.4602 22.3308 18.5285 22.413 18.5891 22.5008C18.5918 22.5055 18.5942 22.5104 18.5964 22.5153C18.675 22.6329 18.7391 22.7596 18.7873 22.8927C18.7913 22.9039 18.7998 22.9138 18.8031 22.925C18.8216 22.977 18.8308 23.0303 18.844 23.0837C18.8525 23.1186 18.8637 23.1535 18.8703 23.1884C18.8703 23.1969 18.8756 23.2048 18.8769 23.2134C18.8907 23.2979 18.8986 23.3833 18.9006 23.4689V24.0168L19.5466 24.6602L20.1946 24.0135V23.4939L20.1881 23.49Z" fill="#BC886C"/>
<path d="M13.1844 18.1715C13.2713 18.1549 13.3594 18.145 13.4478 18.1419C13.4724 18.1419 13.4968 18.1419 13.5209 18.1419C13.5822 18.1419 13.6428 18.1452 13.7033 18.1511C13.7356 18.1544 13.7692 18.1629 13.8002 18.1682C13.8311 18.1735 13.866 18.1781 13.897 18.1853C13.918 18.1893 13.9398 18.1906 13.9628 18.1959C14.0109 18.2084 14.057 18.2281 14.1044 18.2446C14.1393 18.2564 14.1749 18.2657 14.2098 18.2802C14.2196 18.2848 14.2308 18.2867 14.2407 18.2907C14.2624 18.3006 14.2809 18.3177 14.302 18.3282C14.3983 18.3752 14.4901 18.4312 14.5759 18.4955C14.5944 18.5093 14.6161 18.5159 14.6339 18.5304C14.6799 18.5684 14.7239 18.6089 14.7656 18.6516L15.1126 18.9973L15.3583 18.7517V17.5004L18.6655 14.2077V13.8482L14.487 18.0181L9.18244 12.7286C9.0688 12.6109 9.00509 12.4537 9.00464 12.29V13.8929C9.00506 14.0564 9.06878 14.2134 9.18244 14.3309L13.0679 18.2077C13.1074 18.1972 13.1449 18.182 13.1844 18.1748V18.1715Z" fill="#BC886C"/>
<path d="M11.1357 29.3812C10.5726 29.368 10.0337 29.149 9.62106 28.7655C9.41334 28.555 9.25204 28.3034 9.14757 28.0267C9.04311 27.75 8.99779 27.4546 9.01455 27.1593C9.01455 27.2008 9.00336 27.2416 9.00336 27.2825V28.8959C9.00766 29.4521 9.22935 29.9846 9.62106 30.3796C10.0354 30.7637 10.5755 30.9836 11.1403 30.998C11.3744 30.9987 11.6061 30.9516 11.8212 30.8595C12.0364 30.7674 12.2305 30.6324 12.3916 30.4626L14.6438 28.2156V26.6035L12.3916 28.8485C12.2304 29.0192 12.0356 29.1547 11.8194 29.2464C11.6033 29.3381 11.3705 29.384 11.1357 29.3812V29.3812Z" fill="#BC886C"/>
<path d="M17.1338 26.6273C16.9025 26.6276 16.6736 26.5822 16.46 26.4937C16.2464 26.4052 16.0524 26.2754 15.8891 26.1117L12.2796 22.5114C12.116 22.3483 11.9863 22.1545 11.8978 21.9412C11.8093 21.7278 11.7638 21.4991 11.764 21.2681V22.3942L11.7818 22.3757L14.6385 25.2253V26.4765L15.8898 27.7277C16.0768 27.9166 16.3043 28.0604 16.5551 28.1483C16.8058 28.2362 17.0733 28.2658 17.3373 28.2351C17.6013 28.2043 17.8548 28.1139 18.0786 27.9706C18.3024 27.8274 18.4908 27.6351 18.6293 27.4083C18.6352 27.3978 18.6458 27.3892 18.6524 27.3787C18.6734 27.3425 18.6859 27.303 18.705 27.2654C18.7314 27.2121 18.7584 27.1601 18.7795 27.1047C18.7847 27.0903 18.7933 27.0778 18.7986 27.0633C18.8144 27.0172 18.8216 26.9691 18.8341 26.9217C18.8466 26.8742 18.8578 26.838 18.8651 26.7952C18.8651 26.7847 18.8717 26.7742 18.8736 26.763C18.8875 26.673 18.8946 26.582 18.8947 26.491V26.491V24.8808C18.8955 25.1105 18.8503 25.3381 18.7617 25.5501C18.6731 25.762 18.543 25.9541 18.3791 26.115C18.2155 26.2782 18.0212 26.4074 17.8075 26.4954C17.5938 26.5833 17.3648 26.6281 17.1338 26.6273Z" fill="#BC886C"/>
<path d="M29.4557 28.7675C29.043 29.1509 28.5042 29.3699 27.9411 29.3832C27.7071 29.3853 27.4752 29.3391 27.2599 29.2474C27.0446 29.1557 26.8505 29.0206 26.6898 28.8504L24.4376 26.6055V28.2176L26.6898 30.4645C26.8509 30.6343 27.045 30.7694 27.2602 30.8615C27.4753 30.9535 27.707 31.0007 27.9411 30.9999C28.5059 30.9856 29.046 30.7657 29.4603 30.3816C29.5702 30.2699 29.6667 30.1459 29.7481 30.0121C29.7567 29.9983 29.7692 29.9877 29.7771 29.9739C29.7995 29.9364 29.8133 29.8929 29.8331 29.8528C29.8702 29.7838 29.9034 29.7128 29.9325 29.64C29.9404 29.6183 29.9536 29.5992 29.9615 29.5775C29.9786 29.5281 29.9859 29.4754 29.9997 29.4253C30.0135 29.3753 30.0293 29.32 30.0392 29.266C30.0431 29.2469 30.0504 29.2291 30.0537 29.21C30.0697 29.1067 30.0779 29.0024 30.0781 28.8979V27.2844C30.0781 27.2436 30.0702 27.2028 30.0669 27.1619C30.0829 27.4574 30.0368 27.753 29.9316 28.0295C29.8263 28.3061 29.6642 28.5575 29.4557 28.7675V28.7675Z" fill="#BC886C"/>
<path d="M27.2924 22.375L27.3102 22.3935V21.2673C27.3104 21.4983 27.265 21.7271 27.1765 21.9405C27.088 22.1538 26.9582 22.3476 26.7946 22.5107L23.1851 26.1116C22.8555 26.4381 22.4103 26.6212 21.9464 26.6212C21.4824 26.6212 21.0373 26.4381 20.7076 26.1116C20.5207 25.9263 20.3784 25.7008 20.2915 25.4523C20.2047 25.2038 20.1756 24.9387 20.2065 24.6773C20.1967 24.7408 20.1906 24.8048 20.188 24.8689V26.4791C20.19 26.8254 20.294 27.1635 20.487 27.4511C20.68 27.7387 20.9536 27.963 21.2734 28.0959C21.5932 28.2289 21.9451 28.2646 22.2851 28.1987C22.6252 28.1327 22.9382 27.9679 23.1851 27.725L24.4363 26.4738V25.2226L27.2924 22.375Z" fill="#BC886C"/>
</g>
<path d="M30.0728 25.87C30.0716 25.7789 30.0634 25.688 30.0484 25.598L30.0445 25.5822C30.0392 25.5526 30.0287 25.5236 30.0221 25.4946C30.0096 25.4311 29.9937 25.3682 29.9747 25.3063C29.9747 25.2971 29.9641 25.2885 29.9609 25.2786C29.9128 25.1455 29.8489 25.0186 29.7705 24.9007C29.7705 24.896 29.7666 24.8914 29.7633 24.8868C29.6986 24.7925 29.6254 24.7044 29.5447 24.6234C29.4742 24.5529 28.1525 23.2444 27.3102 22.3969L27.2924 22.3784L24.4357 25.2279V26.6069L27.2924 23.7574C28.1341 24.605 29.4735 25.9306 29.5447 26.0024C29.6287 26.0876 29.7043 26.1806 29.7705 26.2803C29.7745 26.2862 29.7758 26.2935 29.7798 26.2994C29.8791 26.4529 29.9535 26.6212 30.0004 26.7979C30.007 26.8229 30.0162 26.848 30.0221 26.8736C30.028 26.8993 30.0326 26.9164 30.0386 26.9395C30.0386 26.9474 30.0432 26.9553 30.0445 26.9632C30.0458 26.9711 30.0445 26.9981 30.0491 27.0152C30.0563 27.0653 30.059 27.1147 30.0623 27.1647C30.0656 27.2148 30.0735 27.2464 30.0735 27.2872V25.87H30.0728Z" fill="#4F2806"/>
<path d="M11.7791 22.375L11.7613 22.3934C10.9191 23.241 9.59737 24.5495 9.5269 24.62C9.35809 24.7881 9.22453 24.9882 9.13406 25.2086C9.0436 25.429 8.99804 25.6652 9.00006 25.9035V26.5996V27.2825C9.00006 27.2416 9.00862 27.2008 9.01126 27.1593C9.01389 27.1178 9.01719 27.0605 9.02443 27.0105C9.02838 26.9835 9.0297 26.9565 9.03431 26.9295C9.04353 26.8834 9.06065 26.8393 9.07316 26.7938C9.08567 26.7484 9.09622 26.701 9.11268 26.6549C9.14316 26.5766 9.17925 26.5007 9.22067 26.4277C9.24043 26.3895 9.25558 26.3513 9.27928 26.3144C9.35054 26.2003 9.43424 26.0946 9.52887 25.999C9.59999 25.9279 10.9395 24.6015 11.7811 23.754L14.6379 26.6035V25.2245L11.7791 22.375Z" fill="#4F2806"/>
<path d="M18.8914 23.4649C18.8895 23.3793 18.8815 23.2939 18.8677 23.2094C18.8677 23.2008 18.8624 23.1929 18.8611 23.1843C18.8545 23.1494 18.8433 23.1145 18.8348 23.0796C18.8216 23.0263 18.8124 22.973 18.7939 22.9209C18.7939 22.9097 18.7821 22.8999 18.7781 22.8887C18.7299 22.7556 18.6658 22.6289 18.5872 22.5113C18.585 22.5064 18.5826 22.5015 18.5799 22.4968C18.5193 22.409 18.451 22.3268 18.3758 22.2512L15.3531 19.2397L15.1074 18.9953L14.7604 18.6496C14.7187 18.6069 14.6747 18.5664 14.6286 18.5284C14.6109 18.5139 14.5891 18.5074 14.5707 18.4935C14.4848 18.4293 14.3931 18.3733 14.2967 18.3263C14.2757 18.3157 14.2572 18.2986 14.2355 18.2887C14.2256 18.2848 14.2144 18.2828 14.2045 18.2782C14.1696 18.2637 14.1341 18.2545 14.0992 18.2426C14.0518 18.2262 14.0057 18.2064 13.9576 18.1939C13.9372 18.1886 13.9154 18.1873 13.8917 18.1834C13.8595 18.1761 13.8259 18.1715 13.7949 18.1662C13.764 18.161 13.7291 18.1524 13.6981 18.1491C13.6375 18.1432 13.577 18.1399 13.5157 18.1399C13.4916 18.1399 13.4672 18.1399 13.4426 18.1399C13.3542 18.143 13.2661 18.1529 13.1792 18.1695V18.1695C13.1397 18.1768 13.1021 18.1919 13.0626 18.2025C13.0034 18.2157 12.9449 18.2322 12.8875 18.2519L12.873 18.2591C12.801 18.2892 12.7312 18.3244 12.6642 18.3645C12.6293 18.3836 12.5931 18.3974 12.5595 18.4185C12.4575 18.485 12.3626 18.5617 12.2763 18.6476C12.1095 18.8121 11.978 19.0089 11.8898 19.2258C11.8037 19.4348 11.759 19.6584 11.7581 19.8844V19.8844V21.2634C11.7582 20.9117 11.8645 20.5683 12.0629 20.278C12.2614 19.9877 12.5428 19.764 12.8703 19.6361V19.6361C12.9694 19.5969 13.0719 19.5669 13.1766 19.5466V19.5466C13.2866 19.5255 13.3984 19.5149 13.5104 19.5149C13.7413 19.5135 13.9701 19.5578 14.1837 19.6453C14.3974 19.7328 14.5915 19.8617 14.7551 20.0246L18.3705 23.6262C18.5488 23.8074 18.6861 24.0248 18.7729 24.2637V24.2637C18.7951 24.3263 18.814 24.3901 18.8295 24.4547V24.4547C18.865 24.5916 18.884 24.7321 18.8861 24.8735V23.4609L18.8914 23.4649Z" fill="#4F2806"/>
<path d="M20.2197 24.5389C20.2197 24.5225 20.2295 24.5067 20.2328 24.4902C20.244 24.4395 20.2611 24.3901 20.2769 24.3407C20.2928 24.2913 20.298 24.2545 20.3145 24.213C20.3447 24.145 20.3792 24.079 20.4179 24.0154C20.4376 23.9805 20.4508 23.943 20.4732 23.9087C20.5381 23.8094 20.6126 23.7167 20.6958 23.6321L24.3112 20.0305C24.3974 19.9447 24.4923 19.8681 24.5944 19.802V19.802C24.6286 19.7803 24.6655 19.7665 24.7004 19.7474C24.962 19.6006 25.2566 19.5227 25.5565 19.5208C25.6501 19.5224 25.7435 19.5312 25.8357 19.5472V19.5472C25.9335 19.5631 26.0298 19.5873 26.1235 19.6196L26.1387 19.6236C26.3041 19.6812 26.4596 19.764 26.5996 19.8692V19.8692C26.6698 19.9175 26.7358 19.9715 26.7972 20.0305C26.9609 20.1924 27.0908 20.3852 27.1794 20.5978C27.2679 20.8103 27.3133 21.0384 27.3128 21.2686V19.8567C27.3114 19.7713 27.3037 19.6861 27.2898 19.6018C27.2898 19.5933 27.2852 19.5854 27.2832 19.5768C27.2773 19.5426 27.2661 19.511 27.2575 19.4754C27.2444 19.4221 27.2351 19.3687 27.2173 19.3173C27.2134 19.3055 27.2048 19.2956 27.2009 19.2837C27.1533 19.1528 27.0901 19.0281 27.0125 18.9123L27.0066 18.9011C26.945 18.8116 26.8751 18.728 26.7979 18.6516C26.7535 18.6064 26.7067 18.5637 26.6576 18.5238C26.6405 18.51 26.6194 18.5034 26.6016 18.4902C26.5191 18.4278 26.4309 18.3733 26.3382 18.3275C26.3165 18.317 26.298 18.2992 26.2763 18.29C26.2664 18.2854 26.2565 18.2841 26.2467 18.2795C26.2131 18.2656 26.1808 18.2564 26.1439 18.2446C26.1071 18.2327 26.061 18.2143 26.0188 18.2018C26.0129 18.2018 26.0069 18.1971 26.001 18.1958C25.9806 18.1906 25.9589 18.1892 25.9352 18.1846C25.9029 18.178 25.8693 18.1734 25.8384 18.1682C25.8074 18.1629 25.7725 18.1543 25.7416 18.1511C25.681 18.1451 25.6197 18.1418 25.5591 18.1418C25.5346 18.1418 25.5102 18.1418 25.486 18.1418C25.4003 18.1452 25.3149 18.1549 25.2305 18.1708H25.2213C25.1202 18.1899 25.0211 18.2179 24.925 18.2545L24.9124 18.261C24.8402 18.2911 24.7702 18.3263 24.703 18.3664C24.6681 18.3855 24.6312 18.3987 24.5977 18.4204C24.4956 18.4865 24.4007 18.5631 24.3145 18.6489L20.6991 22.2505C20.6158 22.3346 20.5414 22.4271 20.4771 22.5264C20.2905 22.8128 20.1912 23.1474 20.1913 23.4892V23.4892V24.1813V24.8682C20.1939 24.804 20.2 24.74 20.2098 24.6766C20.2085 24.6311 20.2085 24.5844 20.2197 24.5389Z" fill="#4F2806"/>
<path d="M15.3557 18.7497V18.8814L25.7159 8.55737C25.8314 8.44386 25.9867 8.38004 26.1486 8.37957H29.4558C29.5364 8.37978 29.6162 8.39541 29.6909 8.42565L29.7001 8.42895L29.708 8.43422C29.8161 8.48133 29.9081 8.55894 29.9728 8.65754C30.0375 8.75613 30.072 8.87146 30.0722 8.98938V7.59854C30.0717 7.56872 30.0688 7.53899 30.0636 7.50963C30.0584 7.47599 30.05 7.44292 30.0386 7.41085C30.0386 7.40295 30.0307 7.39636 30.0274 7.3878C30.0241 7.37924 30.0129 7.36014 30.0057 7.34499C29.9942 7.31739 29.9805 7.29075 29.9648 7.2653C29.9489 7.24555 29.9318 7.22686 29.9135 7.20933C29.901 7.19406 29.8875 7.17954 29.8733 7.16586C29.8641 7.1573 29.8582 7.14678 29.8483 7.13887C29.8055 7.10404 29.7584 7.07502 29.708 7.0526H29.7001L29.6902 7.0493C29.664 7.03841 29.6372 7.02918 29.6099 7.02165C29.5805 7.01425 29.5505 7.00918 29.5203 7.00649C29.4985 7.00402 29.4765 7.00294 29.4545 7.00322H26.1235C26.0935 7.00474 26.0636 7.00826 26.034 7.01375C25.9982 7.02039 25.9632 7.0303 25.9293 7.04337L25.922 7.04799C25.8446 7.07725 25.774 7.12206 25.7146 7.17969L18.6616 14.2077L15.3544 17.5004L15.3557 18.7497Z" fill="#4F2806"/>
<path d="M9.04548 8.77149C9.06775 8.71988 9.097 8.67156 9.13241 8.62791C9.14229 8.6154 9.14888 8.60025 9.15942 8.5884C9.21122 8.52998 9.27384 8.48213 9.34381 8.44748L9.34841 8.44418C9.36158 8.43826 9.37212 8.42903 9.38529 8.42376C9.4593 8.39353 9.53846 8.37788 9.61841 8.37766H12.9256C13.0031 8.37833 13.0797 8.39353 13.1515 8.42246V8.42246C13.2288 8.45156 13.2992 8.4964 13.3583 8.55416L18.6629 13.8436V12.4646L13.3583 7.17517C13.3443 7.16075 13.3294 7.14732 13.3135 7.13499C13.2712 7.10025 13.2242 7.07165 13.1739 7.05004L13.1634 7.04608L13.1515 7.04214C13.1262 7.03169 13.1002 7.02289 13.0738 7.0158C13.0448 7.00856 13.0153 7.00329 12.9856 7C12.9658 7 12.9454 7 12.9256 7H9.59208C9.56089 7.00138 9.52984 7.00512 9.49922 7.01119C9.46396 7.01774 9.42936 7.02744 9.39583 7.04017L9.38529 7.04608C9.37212 7.05135 9.36093 7.06058 9.34776 7.06716C9.29612 7.09193 9.24823 7.12386 9.20551 7.162C9.18931 7.17744 9.17393 7.19369 9.15942 7.21072C9.12555 7.24862 9.09696 7.29094 9.07445 7.33651C9.06375 7.35506 9.05408 7.37419 9.04548 7.3938C9.01794 7.46255 9.00321 7.53576 9.00201 7.60981V8.9888C9.00321 8.91475 9.01794 8.84154 9.04548 8.77279V8.77149Z" fill="#4F2806"/>
<g style="mix-blend-mode:multiply" opacity="0.75">
<path d="M27.9385 29.3812C28.5016 29.3679 29.0405 29.1489 29.4531 28.7654C29.6608 28.555 29.822 28.3035 29.9265 28.0269C30.031 27.7504 30.0763 27.4551 30.0597 27.1599C30.0564 27.1099 30.0537 27.0605 30.0465 27.0104C30.0465 26.9913 30.0373 26.9729 30.0333 26.9538C30.0241 26.9004 30.0122 26.8471 29.9977 26.7944C29.9509 26.6177 29.8765 26.4494 29.7771 26.2959C29.7091 26.1891 29.6303 26.0896 29.542 25.9989C29.4709 25.9278 28.1314 24.6015 27.2898 23.7539L24.433 26.6034L26.6853 28.8484C26.8461 29.0188 27.0405 29.1541 27.2562 29.2458C27.4719 29.3375 27.7041 29.3836 27.9385 29.3812V29.3812Z" fill="url(#paint4_linear_113_2194)" style="mix-blend-mode:multiply"/>
<path d="M11.7791 23.7539C10.9375 24.6015 9.598 25.9271 9.52688 25.9989C9.43226 26.0945 9.34855 26.2003 9.2773 26.3143C9.25359 26.3512 9.23844 26.3894 9.21868 26.4276C9.17726 26.5006 9.14116 26.5766 9.11068 26.6548C9.09422 26.7009 9.08368 26.7477 9.07117 26.7938C9.05866 26.8399 9.04482 26.9004 9.03494 26.9538C9.03494 26.9729 9.02507 26.9913 9.02243 27.0104C9.01519 27.0605 9.01255 27.1099 9.00926 27.1593C8.9925 27.4545 9.03782 27.75 9.14229 28.0266C9.24676 28.3033 9.40806 28.555 9.61578 28.7654C10.0285 29.1489 10.5673 29.3679 11.1304 29.3812C11.3644 29.3833 11.5964 29.3371 11.8117 29.2454C12.027 29.1537 12.221 29.0186 12.3817 28.8484L14.6339 26.6034L11.7791 23.7539Z" fill="url(#paint5_linear_113_2194)" style="mix-blend-mode:multiply"/>
<path d="M18.8374 24.4588C18.822 24.3942 18.8031 24.3304 18.7808 24.2678C18.694 24.0289 18.5567 23.8115 18.3784 23.6304L14.763 20.0288C14.5995 19.8659 14.4053 19.737 14.1917 19.6495C13.978 19.562 13.7492 19.5177 13.5184 19.5191C13.4063 19.5191 13.2945 19.5297 13.1845 19.5507V19.5507C12.7851 19.627 12.4249 19.8402 12.1658 20.1536C11.9068 20.467 11.7651 20.8609 11.7653 21.2675C11.7652 21.4985 11.8106 21.7273 11.8991 21.9406C11.9876 22.154 12.1174 22.3478 12.281 22.5108L15.8904 26.1118C16.2206 26.4419 16.6683 26.6273 17.1351 26.6273C17.6019 26.6273 18.0496 26.4419 18.3797 26.1118C18.5437 25.9509 18.6738 25.7588 18.7624 25.5469C18.8509 25.3349 18.8962 25.1074 18.8954 24.8777C18.8928 24.7362 18.8733 24.5956 18.8374 24.4588Z" fill="url(#paint6_linear_113_2194)" style="mix-blend-mode:multiply"/>
<path d="M26.7939 20.0288C26.7325 19.9697 26.6665 19.9157 26.5963 19.8674C26.4563 19.7622 26.3008 19.6794 26.1354 19.6218L26.1202 19.6178C26.0265 19.5855 25.9302 19.5613 25.8324 19.5454C25.7402 19.5294 25.6468 19.5206 25.5532 19.519C25.2533 19.5209 24.9587 19.5988 24.6971 19.7456C24.6622 19.7647 24.6253 19.7785 24.5911 19.8002C24.489 19.8663 24.3941 19.9429 24.3079 20.0288L20.6925 23.6303C20.6093 23.715 20.5348 23.8076 20.4699 23.9069C20.4475 23.9412 20.4343 23.9787 20.4146 24.0136C20.3759 24.0772 20.3414 24.1432 20.3112 24.2112C20.2947 24.2527 20.2868 24.2968 20.2737 24.3389C20.2605 24.3811 20.2414 24.439 20.2302 24.4897C20.2262 24.5055 20.2196 24.5207 20.2164 24.5372C20.2078 24.5826 20.2085 24.6294 20.2032 24.6755C20.1723 24.9369 20.2014 25.2019 20.2882 25.4504C20.3751 25.699 20.5174 25.9245 20.7043 26.1098C21.034 26.4362 21.4791 26.6194 21.9431 26.6194C22.407 26.6194 22.8522 26.4362 23.1818 26.1098L26.7939 22.5115C26.9575 22.3484 27.0873 22.1546 27.1758 21.9413C27.2643 21.7279 27.3097 21.4991 27.3095 21.2681V21.2681C27.3101 21.0377 27.2648 20.8094 27.1763 20.5966C27.0878 20.3838 26.9578 20.1908 26.7939 20.0288V20.0288Z" fill="url(#paint7_linear_113_2194)" style="mix-blend-mode:multiply"/>
<path d="M29.708 8.43235L29.7001 8.42708L29.6909 8.42379C29.6162 8.39355 29.5364 8.37789 29.4558 8.37769H26.1486C25.9867 8.37816 25.8314 8.44199 25.7159 8.55551L15.3557 18.8795L19.5401 23.0435L29.8944 12.7254C30.008 12.6076 30.0718 12.4505 30.0722 12.2868V8.98751C30.072 8.86959 30.0375 8.75427 29.9728 8.65567C29.9081 8.55707 29.8161 8.47947 29.708 8.43235V8.43235Z" fill="url(#paint8_linear_113_2194)" style="mix-blend-mode:multiply"/>
<path d="M14.4844 18.0147L18.6629 13.8448L13.3583 8.5554C13.2992 8.49764 13.2288 8.45278 13.1515 8.42368C13.0797 8.39476 13.0031 8.37957 12.9256 8.37891H9.61841C9.53846 8.37912 9.4593 8.39478 9.38529 8.42501C9.37212 8.43028 9.36158 8.43948 9.34841 8.44541L9.34381 8.4487C9.27384 8.48336 9.21122 8.53123 9.15942 8.58965C9.14888 8.6015 9.14229 8.61664 9.13241 8.62916C9.097 8.6728 9.06775 8.7211 9.04548 8.77271C9.01794 8.84146 9.00321 8.91467 9.00201 8.98871V11.5939V12.2874C9.00247 12.451 9.06618 12.6082 9.17982 12.7259L14.4844 18.0147Z" fill="url(#paint9_linear_113_2194)" style="mix-blend-mode:multiply"/>
</g>
<defs>
<linearGradient id="paint0_linear_113_2194" x1="34.2809" y1="34" x2="5.72093" y2="5.99922" gradientUnits="userSpaceOnUse">
<stop stop-color="#692705"/>
<stop offset="1" stop-color="#823B00"/>
</linearGradient>
<radialGradient id="paint1_radial_113_2194" cx="0" cy="0" r="1" gradientUnits="userSpaceOnUse" gradientTransform="translate(-250.276 21.2142) scale(28.1832 28.1798)">
<stop stop-color="#B0670B"/>
<stop offset="1"/>
</radialGradient>
<radialGradient id="paint2_radial_113_2194" cx="0" cy="0" r="1" gradientUnits="userSpaceOnUse" gradientTransform="translate(5.41147 1.00877) scale(45.0224 45.0224)">
<stop stop-color="#E99C43"/>
<stop offset="1" stop-color="#9A4416"/>
</radialGradient>
<radialGradient id="paint3_radial_113_2194" cx="0" cy="0" r="1" gradientUnits="userSpaceOnUse" gradientTransform="translate(-74.7025 -10.7325) scale(57.3239 57.3377)">
<stop stop-color="#CFA04D"/>
<stop offset="1" stop-color="white"/>
</radialGradient>
<linearGradient id="paint4_linear_113_2194" x1="27.248" y1="29.3813" x2="27.248" y2="23.7539" gradientUnits="userSpaceOnUse">
<stop stop-color="#9E6F4F"/>
<stop offset="1" stop-color="#75533B"/>
</linearGradient>
<linearGradient id="paint5_linear_113_2194" x1="11.8199" y1="29.3812" x2="11.8199" y2="23.7539" gradientUnits="userSpaceOnUse">
<stop stop-color="#9E6F4F"/>
<stop offset="1" stop-color="#75533B"/>
</linearGradient>
<linearGradient id="paint6_linear_113_2194" x1="15.3304" y1="26.6273" x2="15.3304" y2="19.519" gradientUnits="userSpaceOnUse">
<stop stop-color="#9E6F4F"/>
<stop offset="1" stop-color="#75533B"/>
</linearGradient>
<linearGradient id="paint7_linear_113_2194" x1="23.7504" y1="26.6194" x2="23.7504" y2="19.519" gradientUnits="userSpaceOnUse">
<stop stop-color="#9E6F4F"/>
<stop offset="1" stop-color="#75533B"/>
</linearGradient>
<linearGradient id="paint8_linear_113_2194" x1="22.714" y1="23.0435" x2="22.714" y2="8.37769" gradientUnits="userSpaceOnUse">
<stop stop-color="#9E6F4F"/>
<stop offset="1" stop-color="#75533B"/>
</linearGradient>
<linearGradient id="paint9_linear_113_2194" x1="13.8324" y1="18.0147" x2="13.8324" y2="8.37891" gradientUnits="userSpaceOnUse">
<stop stop-color="#9E6F4F"/>
<stop offset="1" stop-color="#75533B"/>
</linearGradient>
</defs>
</svg>
